<svg width="380" height="989" viewBox="0 0 380 989" fill="none" xmlns="http://www.w3.org/2000/svg">
<path d="M-37.4658 485.7C-46.8432 479.933 -19.7936 465.799 -14.4875 464.495C-8.60545 463.047 -2.68103 470.684 0.932765 473.453C-0.851958 469.547 -2.79609 465.717 -4.04327 461.564C-5.50179 456.674 4.20134 454.791 7.59408 453.766C13.3949 452.017 12.2697 463.819 15.9162 465.987C15.2855 462.076 14.4032 458.119 14.5886 454.034C14.7187 451.258 16.3623 449.025 19.3124 448.385C23.3434 447.508 27.4415 447.097 31.4916 446.768C40.2518 446.05 34.6567 459.146 39.1384 461.875C39.7617 457.491 40.1553 453.024 42.4904 448.823C48.097 438.754 71.9394 442.341 80.1163 446.132C84.1656 448.013 85.712 451.729 83.8431 456.197C82.1595 460.226 79.4096 463.965 77.1533 467.8C86.5067 467.238 95.8823 466.439 105.229 465.943C110.447 465.667 116.199 471.384 108.571 471.469C94.3038 471.631 80.039 471.776 65.5998 473.526C45.6943 475.94 25.8672 480.077 6.48582 487.178C-2.96345 490.64 -12.392 494.589 -21.3369 499.32C-31.667 504.782 -41.7308 510.944 -50.758 518.517C-55.3642 522.383 -59.914 526.305 -64.492 530.199C-69.6319 534.569 -70.3177 527.063 -69.8518 523.395C-68.9094 515.986 -66.8723 508.638 -61.5631 502.156C-59.0454 499.082 -56.1177 496.241 -53.1668 493.492C-49.318 489.907 -44.7581 489.286 -40.4081 490.407C-34.7107 491.875 -29.3715 494.21 -24.1001 496.474C-21.7408 493.899 -35.8284 486.707 -37.4658 485.7Z" fill="#BD47DA"/>
<path d="M86.6463 224.326C90.3707 223.112 93.4431 220.225 96.0958 216.465C96.6755 215.645 97.0095 214.006 96.9288 212.841C96.6583 208.869 95.1688 205.588 93.656 202.366C92.9022 200.762 92.1697 199.138 91.3882 197.564C90.4803 195.741 90.0153 195.774 88.9434 197.458C88.3453 198.4 87.1603 200.932 86.3172 200.225C86.5134 199.545 86.6485 198.813 86.917 198.193C88.8282 193.799 88.6813 191.295 86.3119 187.539C84.0903 184.014 82.0965 180.159 79.6491 176.98C76.3207 172.653 74.2478 167.024 71.3678 162.245C66.7067 154.514 61.0894 148.586 54.7559 143.832C54.6303 143.737 54.4848 143.693 54.3624 143.593C49.8988 140.017 49.5337 141.874 47.6942 147.092C47.3727 148.002 47.1922 148.99 46.4606 148.767C46.5494 146.994 46.6323 145.22 46.7268 143.447C46.9892 138.666 46.8349 138.045 43.6366 136.444C41.3198 135.285 38.8742 134.558 36.4638 133.763C33.9081 132.921 31.7619 134.372 29.7263 136.564C28.8265 137.53 27.6617 138.003 26.7675 138.973C26.0051 139.8 25.1279 140.893 24.8597 142.085C23.471 148.307 23.4697 154.469 25.2316 160.468C25.7909 162.371 26.2096 164.365 26.623 166.347C27.2214 169.206 28.5247 170.651 30.6967 170.654C31.5945 170.655 32.4861 170.894 33.3803 171.024C33.6335 172.03 32.2706 172.685 31.6795 173.18C31.1356 173.632 30.5183 173.93 30.0255 174.461C28.7336 175.854 28.638 177.128 29.7151 178.696C31.1269 180.751 32.5474 182.751 33.1734 185.636C33.3073 186.259 34.3398 187.098 34.6658 186.892C36.9971 185.388 39.2409 186.617 41.5081 186.743C43.8311 186.868 52.684 185.437 53.9817 188.191C53.0189 188.679 52.0578 189.54 51.0938 189.589C48.1612 189.739 45.2251 189.612 42.2929 189.522C39.7916 189.446 37.5144 190.562 35.397 192.364C35.0157 192.69 34.6445 193.974 34.7983 194.489C35.5302 196.937 36.4381 199.28 37.2987 201.645C37.403 201.934 37.5597 202.275 37.7566 202.391C39.9692 203.723 40.6806 207.161 42.5259 209.002C42.7907 209.267 42.9941 209.659 43.2142 210.007C44.8578 212.639 44.8882 212.725 47.2252 210.878C51.1221 207.798 56.8087 205.259 61.1897 207.07C61.2153 207.08 61.2191 207.177 61.3148 207.58C60.3682 207.975 59.4351 208.391 58.4904 208.75C56.1462 209.643 53.7935 210.475 51.459 211.406C50.8119 211.662 50.1685 212.076 49.5931 212.579C46.2275 215.536 46.8922 216.26 48.5691 219.153C49.9183 221.477 50.7537 224.401 51.7898 227.079C52.4438 228.768 53.0312 230.515 53.6881 232.204C54.1882 233.496 54.7814 233.68 55.7912 232.772C58.7576 230.095 62.061 228.844 65.5976 228.603C63.7312 230.133 61.852 231.63 60.0012 233.198C58.0173 234.877 57.2576 237.152 58.558 239.641C61.9015 246.039 65.3001 252.493 70.7599 255.839C72.7297 257.046 74.7138 257.04 76.5807 255.384C78.8838 253.343 81.1034 251.12 83.3441 248.939C84.1448 248.159 84.9441 247.351 85.6594 246.424C86.87 244.861 87.6664 245.615 88.3023 247.145C90.071 251.386 91.9148 255.574 93.5269 259.938C95.7973 266.075 97.9561 272.305 100.028 278.587C101.22 282.203 102.115 286.023 103.22 289.699C103.423 290.379 104 290.83 104.404 291.386C104.791 290.654 105.503 289.902 105.501 289.192C105.492 287.003 105.45 284.712 104.996 282.668C102.572 271.785 99.3306 261.446 94.705 252.077C93.548 249.734 92.4643 247.313 91.3862 244.896C90.7299 243.426 91.7009 240.227 93.1842 239.06C94.0766 238.357 95.0162 237.755 95.9712 237.246C100.131 235.023 100.804 231.135 100.746 226.322C100.733 225.254 100.608 224.172 100.419 223.143C100.015 220.96 99.4021 220.596 98.0546 222.002C95.8695 224.288 93.4495 225.596 90.8225 226.122C88.6196 226.564 86.4276 226.556 84.3143 225.67C84.2313 224.501 85.9412 224.555 86.6463 224.326Z" fill="#EE43D7"/>
<path d="M93.3517 41.9143C99.1023 44.5629 104.632 47.5032 110.297 48.2888C113.052 48.672 115.776 49.2269 118.62 50.1887C120.194 50.7246 117.83 48.0678 116.37 47.847C114.4 47.5494 112.471 47.4019 110.508 47.1303C106.836 46.62 103.089 45.5133 99.2958 43.5954C96.8324 42.3502 90.0831 39.9661 88.527 37.5769C93.0966 39.463 97.6197 41.6918 102.173 42.665C106.686 43.6302 111.272 44.91 115.767 46.0365C115.016 44.2042 113.693 43.764 111.764 43.3969C107.784 42.6363 103.718 41.7286 99.6535 40.3898C96.3332 39.2962 89.4504 37.3907 86.638 34.5259C95.388 37.7903 103.969 39.9334 112.992 42.5062C111.168 40.3188 109.319 39.6709 107.578 39.3336C102.885 38.4245 99.1962 37.9798 94.2762 36.1158C90.1957 34.5679 86.2282 33.0244 82.2402 30.8342C82.3712 29.6294 107.754 40.6423 107.27 37.9619C103.42 36.9801 81.2641 28.707 79.3426 27.864C79.3809 26.5939 103.561 37.0923 104.183 35.1501C102.626 34.7898 82.7543 28.3018 77.5763 24.9659C77.625 24.1875 93.4822 30.7896 94.7329 31.2949C93.2383 30.2374 76.3107 23.4242 76.4631 22.0229C78.9835 23.026 90.774 29.3186 91.606 28.2711C89.7946 27.0192 77.5265 21.0269 76.0046 20.2277C76.1234 19.4329 95.2671 29.0909 96.2626 28.7135C95.4575 27.6447 75.4866 19.0745 74.8202 18.2386C75.1148 16.776 90.6733 24.5509 93.2269 25.5517C93.3813 24.2645 74.9769 17.6211 75.1092 16.5174C78.323 17.6974 87.0915 21.3736 90.3081 22.5559C90.3209 21.7533 76.2593 15.6642 74.9414 15.0349C75.1035 13.8245 79.1093 16.3575 80.4343 16.9767C80.7783 16.4268 76.693 13.6372 75.8675 12.9815C76.2306 12.3469 77.2669 13.3251 78.1121 13.8678C78.8286 14.3288 79.538 14.8105 80.5257 15.4636C79.7359 13.6623 77.5089 12.5622 77.4137 10.565C79.8926 12.9661 82.1175 15.0779 84.28 17.2335C85.0845 18.0361 85.7514 18.9425 87.0957 18.8451C84.6418 15.7571 80.5537 13.8796 78.7682 10.3793C80.0049 11.3616 87.4068 17.88 88.13 17.4792C86.2987 15.3705 84.4675 13.2619 82.6363 11.1532C83.9771 10.2582 92.3014 21.2689 93.2536 22.6643C93.6425 23.2361 94.1718 23.7762 94.8316 24.2389C94.0886 21.9783 92.5176 19.9887 90.7397 18.0159C89.6234 16.7781 85.1588 12.5092 86.3201 11.9445C89.8954 15.9757 95.7078 22.4282 98.2965 26.1528C99.3362 24.8438 92.7308 16.3792 90.0767 12.5861C90.7165 12.2218 91.7846 13.6228 92.395 14.3252C96.4821 19.0287 98.8858 23.978 101.045 28.9517C101.739 30.5486 102.933 31.7657 104.79 33.0418C101.129 26.5541 99.8587 20.2184 94.8701 14.0629C99.1687 17.775 101.337 21.9766 103.284 26.2421C102.885 22.7245 101.233 19.184 98.788 15.5744C100.573 16.5982 101.497 18.0973 102.013 19.3915C104.082 24.5828 106.487 29.7558 109.351 34.9328C109.893 35.9152 110.304 36.9633 110.493 37.9139C110.726 39.0887 111.571 39.7654 112.356 40.296C109.022 32.8291 105.63 25.2375 102.241 17.6483C103.873 17.5923 105.287 21.4568 105.761 22.538C106.616 24.4841 107.283 26.4337 108.234 28.3746C109.311 30.5737 110.616 32.766 112.024 34.9481C110.251 30.1223 110.335 25.5026 106.503 20.5076C107.749 20.4009 108.907 22.5869 109.456 23.7266C110.369 25.6169 111.011 27.5113 111.773 29.4067C112.954 32.3453 114.135 35.2839 115.329 38.2239C115.785 39.3487 116.272 40.4767 116.745 41.6033C117.446 41.6985 114.568 31.2802 114.3 30.3659C113.551 27.8172 112.424 25.2107 111.488 22.6886C113.079 24.084 114.093 25.8355 114.674 27.5698C115.568 30.2545 116.29 32.9246 116.974 35.579C117.812 38.8385 118.575 42.0841 119.283 45.3161C119.44 46.0301 119.388 46.7684 119.139 47.3072C118.663 48.3422 119.209 49.3134 120.345 50.4233C120.722 50.7898 120.953 51.2651 121.443 51.9701C117.727 51.1525 114.049 50.55 110.447 50.1481C106.301 49.6857 96.3423 46.7781 93.3517 41.9143ZM95.5308 30.2903C97.9465 31.0806 100.527 32.5389 101.981 31.4155C100.919 30.8755 95.2511 29.1274 95.5308 30.2903ZM114.24 40.2269C114.91 41.5823 114.115 42.8728 116.51 44.6783C116.122 43.6869 115.419 40.365 114.24 40.2269ZM108.586 35.8554C107.557 34.1685 106.745 32.8308 105.928 31.4928C105.821 33.1577 106.426 34.7462 108.586 35.8554Z" fill="#EF0BD1"/>
<path d="M115.391 60.9349C119.843 62.4005 124.132 62.1627 128.737 65.3384C128.424 63.3256 127.001 62.762 124.663 62.0679C122.043 61.2891 119.476 60.959 116.884 60.4357C114.374 59.929 112.048 58.496 109.748 56.7219C112.603 57.617 115.457 58.5139 118.31 59.405C121.187 60.3023 124.06 61.1916 127.023 62.1137C126.874 61.4024 126.466 60.7432 125.293 60.4161C123.223 59.8378 121.151 59.2282 119.072 58.5966C115.479 57.5062 111.886 56.4489 108.285 55.2411C106.637 54.6884 105.061 52.5175 103.958 51.2909C105.239 51.631 112.024 53.9716 111.997 53.0265C107.734 51.8744 103.514 50.3539 99.4367 47.3957C99.6744 47.4502 102.375 48.6319 102.595 48.7505C108.17 51.7772 110.889 50.7211 116.221 52.03C117.454 52.3333 121.544 54.2442 121.876 52.915C122.283 51.2764 122.4 49.4707 122.941 47.9143C124.579 43.2 123.444 37.6052 121.68 31.821C121.143 30.064 119.359 28.1958 118.995 26.49C127.098 34.069 126.485 45.9474 123.648 51.5948C122.839 53.2043 122.894 53.7559 124.809 55.9046C126.999 52.6769 128.189 48.9229 128.226 44.4263C128.264 39.8599 125.653 35.0846 123.51 30.3068C123.648 30.3002 123.787 30.2937 123.927 30.2911C124.304 30.8499 124.713 31.4024 125.052 31.967C126.939 35.113 129.032 38.2091 129.666 41.4428C130.835 47.4123 130.533 52.5372 126.345 55.6702C125.535 56.2773 124.748 56.9723 126.315 58.5729C134.32 53.9882 133.646 45.2823 129.467 34.9009C131.035 35.2269 131.994 38.1626 132.332 39.4197C133.882 45.154 134.955 50.7577 133.544 55.539C132.881 57.7777 130.957 58.8079 128.594 59.3405C124.686 60.2238 129.568 61.4904 132.26 59.8871C135.564 57.9203 135.987 54.1622 135.61 50.0895C135.452 48.3767 132.574 39.7345 134.134 39.3847C135.398 43.548 136.87 47.9093 137.165 51.8559C137.363 54.4954 136.844 56.9185 136.454 59.3458C136.223 60.7799 135.439 61.8015 133.64 61.9728C131.978 62.1335 130.488 62.6058 128.783 62.9716C129.598 67.4357 137.376 61.5299 138.197 59.9649C140.443 55.6837 138.306 49.3784 137.117 43.784C140.654 44.2716 140.237 58.4554 140.004 59.7439C139.657 61.6532 138.614 63.3037 137.409 64.6806C135.498 66.8639 129.774 64.1694 130.344 67.1492C128.824 66.4471 127.451 65.7917 126.076 65.1847C124.944 64.685 120.432 62.3634 120.42 63.3439C128.653 68.2509 131.688 68.3862 136.965 66.3774C139.63 65.0574 141.889 63.8726 142.343 61.0968C142.529 59.9542 141.947 50.0881 143.011 50.3954C143.728 54.1346 144.122 57.765 144.029 61.2592C143.905 66.067 141.056 68.4883 135.804 68.6738C135.099 68.6984 129.972 68.9806 130.922 70.0526C128.868 67.5629 126.167 66.7347 123.61 65.6791C119.689 64.0544 119.392 64.1132 115.391 60.9349ZM109.143 54.4741C111.162 55.0637 125.222 59.7121 125.098 58.6432C123.136 57.6451 108.94 53.1374 109.143 54.4741ZM113.819 53.6444C117.192 54.6355 120.564 55.6284 123.94 56.6218C124.229 56.0722 122.497 54.8375 121.755 54.6795C120.7 54.4546 113.646 52.9329 113.819 53.6444Z" fill="#EF0BD1"/>
<path d="M130.664 70.435C131.301 70.5175 131.299 71.0855 136.499 69.5794C138.332 69.1281 140.2 68.7602 141.917 68.1528C145.641 66.8349 146.39 63.3971 146.737 59.7008C146.783 59.2119 147.567 55.93 147.595 57.6169C147.654 61.881 147.49 66.0435 144.647 68.7179C141.989 71.217 137.767 71.8199 133.374 71.9537C131.599 72.0188 131.574 72.1209 132.674 73.8039C135.095 73.5746 137.541 73.4355 139.874 73.1036C143.989 72.517 146.356 70.1861 147.782 66.9759C148.352 65.6917 148.434 63.2614 149.905 62.6785C149.117 66.4832 148.528 70.4392 145.591 72.8549C143.346 74.7032 132.962 74.8119 133.561 76.9734C136.141 76.8407 138.247 76.8866 140.141 76.5896C142.099 76.2818 144.102 75.9185 145.65 75.0892C149.337 73.118 150.608 69.846 151.893 66.0859C153.176 66.7265 152.151 69.9076 151.818 70.6582C150.956 72.596 149.814 74.3758 148.519 76.0071C147.489 77.3036 145.802 77.9432 143.656 77.9416C141.262 77.9387 138.939 78.091 136.498 77.9685C134.966 77.8905 133.985 78.1627 134.062 79.7306C137.353 81.0864 142.146 79.6661 145.022 79.4645C148.661 79.2098 150.132 76.7892 151.703 74.486C152.274 73.6515 152.781 72.7693 153.317 71.9096C154.445 72.6354 152.844 74.779 152.457 75.4113C151.36 77.1979 150.378 79.1074 148.883 80.5543C146.692 82.6748 142.927 82.4324 139.061 81.8704C138.256 81.7533 137.419 81.5592 136.645 81.5135C134.989 81.4165 134.467 82.2892 135.117 84.2311C135.838 84.003 136.414 83.6488 137.15 83.6206C138.878 83.5563 140.663 83.601 142.461 83.6918C148.107 83.9795 152.193 82.5177 153.604 77.9695C153.919 76.9581 154.399 76.0401 155.188 75.2152C155.606 78.4429 153.838 81.5989 152.537 83.9588C151.18 86.4149 147.875 86.3711 144.336 85.8265C142.115 85.4847 139.895 85.1993 137.787 85.1453C136.725 85.1194 135.916 85.6682 134.943 85.9762C133.311 82.6593 129.449 80.6021 126.537 77.8128C124.68 76.0375 122.872 74.2247 121.196 72.3093C125.614 75.5641 130.421 78.2933 133.672 82.861C134.476 82.4134 134.18 81.2871 132.985 80.2509C130.817 78.3744 128.529 76.621 126.279 74.8309C124.314 73.2675 122.315 71.7411 120.386 70.1387C119.931 69.76 119.691 69.14 119.354 68.6301C119.921 68.3742 120.267 69.0618 120.946 69.538C124.636 72.1358 128.356 74.5571 131.759 77.5484C132.275 78.0016 132.682 78.5617 133.248 79.1951C133.208 76.2054 130.614 74.5417 128.119 72.9431C126.117 71.6592 124.013 70.6072 122.013 69.3256C120.979 68.6616 120.068 67.7196 119.265 66.6898C123.55 69.4157 128.314 70.7203 132.024 74.6979C132.65 74.1229 131.376 72.7217 130.295 72.0486C126.159 69.4798 121.95 67.1065 117.786 64.6129C117.846 64.3266 120.675 65.4907 120.232 65.2915C123.435 67.0071 127.506 69.5911 130.664 70.435Z" fill="#EF0BD1"/>
<path d="M137.781 122.165C137.757 118.101 137.862 114.082 137.696 109.969C137.605 107.741 136.557 105.435 134 103.324C132.012 101.685 130.697 99.7961 130.114 97.7293C133.452 101.026 137.138 104.152 138.716 108.314C141.927 107.214 143.426 104.629 147.381 103.977C151.199 103.347 155.081 102.803 158.084 101.024C158.973 100.496 159.764 99.8593 160.601 99.2706C161.394 99.9549 160.073 100.944 159.622 101.285C156.601 103.581 152.909 105.05 148.583 105.735C144.987 106.301 142.295 107.979 140.142 110.145C139.296 110.995 139.217 112.591 139.102 113.983C138.873 116.777 138.87 119.669 138.75 122.511C138.736 122.871 138.594 123.178 138.51 123.509C137.798 123.223 137.784 122.755 137.781 122.165Z" fill="#EF0BD1"/>
<path d="M156.961 81.3696C157.294 83.6194 156.863 85.31 155.718 86.5552C153.03 89.4812 149.352 91.1244 143.962 90.497C141.912 90.2588 139.899 90.1373 137.902 90.0408C137.355 90.0154 136.004 90.6973 135.678 90.2308C133.373 86.9257 129.98 84.4115 126.947 81.6696C124.245 79.2252 122.475 76.5811 121.043 73.7032C123.69 76.1239 126.197 78.6909 128.683 81.2352C131.407 84.0179 133.888 88.2023 137.502 87.842C139.607 87.6334 141.884 87.5967 144.228 87.9866C148.955 88.7764 152.3 87.795 154.449 85.0835C155.342 83.9706 156.065 82.7132 156.961 81.3696Z" fill="#EF0BD1"/>
<path d="M156.533 91.4049C153.976 93.667 150.228 94.2849 145.91 94.0127C143.519 93.8625 141.095 93.6311 138.75 93.5848C137.937 93.57 137.324 94.0057 136.728 94.1986C134.398 91.924 132.167 89.7262 129.914 87.5511C127.687 85.4005 125.687 83.7854 124.286 81.3313C126.783 83.3148 128.918 84.8381 130.817 86.5713C132.38 87.9968 133.717 89.6487 135.053 91.2441C135.882 92.2358 136.588 92.5073 137.56 92.4323C140.249 92.2258 142.873 91.822 145.726 92.006C151.738 92.3949 156.044 90.8886 158.054 86.5306C158.587 85.3696 157.547 90.5072 156.533 91.4049Z" fill="#EF0BD1"/>
<path d="M137.858 105.548C136.866 101.659 133.422 99.0981 131.013 96.1567C130.669 95.7375 129.042 93.1173 129.649 93.7036C131.69 95.7394 133.76 97.7551 135.726 99.8393C136.287 100.433 136.512 101.223 136.936 101.913C137.346 102.582 138.513 103.576 138.806 102.668C139.906 99.2752 143.815 99.2959 147.449 99.233C151.786 99.1557 155.458 98.349 158.105 96.0208C158.493 95.6775 159.023 95.468 159.751 95.4156C158.438 99.273 152.3 101.694 147.474 101.557C143.703 101.45 141.304 103.02 139.07 104.829C138.822 105.031 138.501 105.168 137.858 105.548Z" fill="#EF0BD1"/>
<path d="M160.489 91.7027C159.232 92.7748 158.082 93.9555 156.698 94.8975C153.47 97.0996 149.292 97.8757 144.463 97.7898C142.405 97.7528 140.662 98.4682 138.878 98.9867C138.278 99.1617 137.997 99.7824 137.453 100.311C135.424 97.9684 134.297 95.7124 131.769 93.4636C130.324 92.1808 128.778 90.9069 128.535 89.1308C130.79 92.1218 134.918 93.8093 136.455 97.5764C137.613 97.226 138.553 96.7961 139.659 96.6401C141.818 96.3344 143.961 95.9162 146.307 96.0305C150.184 96.2188 153.364 95.4761 156.006 93.8777C156.837 93.3751 159.334 90.707 160.489 91.7027Z" fill="#EF0BD1"/>
<path d="M120.721 49.7228C120.009 42.0404 117.913 34.0471 115.617 25.9684C118.988 28.4705 122.572 44.6894 120.721 49.7228Z" fill="#EF0BD1"/>
<path d="M189.688 238.315C188.186 231.713 186.351 225.261 186.685 219.237C186.846 216.308 186.831 213.364 186.435 210.192C186.212 208.434 188.389 211.561 188.321 213.117C188.229 215.219 187.996 217.238 187.879 219.326C187.663 223.231 188.026 227.369 189.187 231.769C189.94 234.626 190.983 242.183 193.053 244.41C192.077 239.221 190.75 233.991 190.679 229.059C190.608 224.171 190.238 219.125 190.003 214.213C191.678 215.466 191.855 216.94 191.841 219.018C191.813 223.305 191.915 227.719 192.446 232.244C192.88 235.942 193.42 243.51 195.716 247.152C194.192 237.308 193.751 227.933 192.969 217.991C194.785 220.439 195.066 222.508 195.058 224.385C195.038 229.443 194.754 233.348 195.639 238.89C196.375 243.488 197.129 247.968 198.522 252.639C199.746 252.821 193.791 223.86 196.362 225.061C196.58 229.273 200.446 254.2 200.906 256.395C202.177 256.69 196.497 229.099 198.551 228.972C198.603 230.665 201.143 252.777 203.441 258.971C204.225 259.126 200.781 241.106 200.525 239.689C201.282 241.502 204.726 260.676 206.15 260.888C205.648 258.036 201.711 244.274 202.917 243.695C203.806 245.885 207.35 260.058 207.845 261.831C208.659 261.918 202.823 239.72 203.394 238.797C204.299 239.905 208.89 262.667 209.591 263.571C211.104 263.653 206.434 245.632 205.942 242.746C207.253 242.926 210.236 263.572 211.36 263.726C210.819 260.116 208.889 250.145 208.347 246.531C209.148 246.729 212.435 262.77 212.802 264.289C214.038 264.441 212.307 259.661 211.952 258.138C212.567 257.929 214.537 262.858 215.027 263.878C215.73 263.672 214.961 262.35 214.587 261.34C214.27 260.483 213.931 259.628 213.475 258.442C215.112 259.726 215.767 262.302 217.736 262.926C215.835 259.749 214.173 256.909 212.454 254.121C211.814 253.084 211.044 252.161 211.406 250.806C213.994 254.138 215.057 258.829 218.187 261.583C217.454 260.055 212.427 250.74 212.968 250.103C214.705 252.538 216.442 254.973 218.179 257.408C219.334 256.266 210.02 244.823 208.819 243.478C208.327 242.928 207.894 242.243 207.564 241.443C209.666 242.801 211.336 244.937 212.948 247.282C213.96 248.754 217.327 254.461 218.118 253.417C214.812 248.685 209.538 241.02 206.342 237.382C207.849 236.659 214.969 245.668 218.22 249.391C218.708 248.83 217.525 247.364 216.946 246.553C213.072 241.119 208.622 237.349 204.099 233.824C202.647 232.691 201.672 231.145 200.768 228.903C206.501 234.368 212.554 237.339 217.695 244.08C214.849 238.69 211.096 235.358 207.236 232.237C210.657 233.572 213.854 236.199 216.963 239.659C216.296 237.557 214.987 236.214 213.801 235.344C209.044 231.855 204.372 228.024 199.785 223.722C198.915 222.907 197.953 222.209 197.045 221.764C195.922 221.217 195.415 220.171 195.042 219.225C201.814 224.613 208.698 230.092 215.58 235.568C215.957 233.907 212.391 231.439 211.409 230.668C209.641 229.278 207.833 228.08 206.09 226.593C204.114 224.909 202.19 222.993 200.297 220.972C204.748 224.063 209.361 225.191 213.575 230.44C213.927 229.188 211.98 227.424 210.954 226.561C209.254 225.126 207.496 223.968 205.76 222.688C203.069 220.702 200.379 218.717 197.689 216.717C196.66 215.953 195.634 215.157 194.606 214.374C194.65 213.63 204.447 219.325 205.304 219.84C207.692 221.28 210.063 223.123 212.387 224.747C211.313 222.746 209.77 221.245 208.159 220.192C205.664 218.568 203.15 217.124 200.644 215.724C197.567 214.006 194.488 212.369 191.413 210.792C190.733 210.443 189.988 210.303 189.403 210.416C188.28 210.633 187.421 209.817 186.541 208.358C186.251 207.874 185.823 207.513 185.219 206.823C185.3 210.854 185.175 214.79 184.865 218.595C184.508 222.974 185.439 233.964 189.688 238.315ZM201.681 239.134C201.371 236.446 200.429 233.412 201.833 232.215C202.161 233.448 202.783 239.727 201.681 239.134ZM195.482 217.309C194.266 216.265 192.825 216.741 191.501 213.808C192.411 214.466 195.577 216.062 195.482 217.309ZM198.717 224.265C200.193 225.764 201.363 226.951 202.533 228.141C200.856 227.813 199.395 226.774 198.717 224.265Z" fill="#FA8BEB"/>
<path d="M175.108 210.681C174.527 205.724 175.608 201.382 173.356 195.818C175.297 196.669 175.577 198.279 175.807 200.861C176.066 203.757 175.889 206.479 175.899 209.279C175.908 211.989 176.876 214.755 178.187 217.583C177.859 214.416 177.529 211.25 177.205 208.085C176.879 204.896 176.56 201.711 176.227 198.427C176.905 198.767 177.48 199.358 177.575 200.649C177.742 202.927 177.94 205.215 178.159 207.516C178.536 211.493 178.88 215.46 179.372 219.476C179.598 221.312 181.447 223.502 182.45 224.957C182.364 223.552 181.372 215.97 182.307 216.246C182.613 220.927 183.294 225.66 185.434 230.625C185.427 230.366 184.783 227.282 184.708 227.026C182.796 220.504 184.382 217.99 184.13 212.171C184.071 210.824 182.976 206.122 184.364 206.131C186.074 206.143 187.894 206.499 189.548 206.353C194.561 205.91 199.903 208.547 205.31 211.879C206.952 212.893 208.459 215.217 210.084 216.039C204.141 205.724 192.203 203.231 186.026 204.659C184.266 205.066 183.728 204.864 181.967 202.333C185.61 200.933 189.579 200.698 194.06 201.842C198.61 203.004 202.846 206.941 207.177 210.399C207.211 210.258 207.245 210.117 207.275 209.974C206.793 209.441 206.324 208.876 205.829 208.379C203.071 205.613 200.403 202.65 197.311 201.149C191.603 198.378 186.445 197.34 182.503 200.817C181.74 201.489 180.893 202.114 179.61 200.084C185.748 193.071 194.276 196.051 203.78 203.074C203.765 201.377 201.033 199.62 199.849 198.943C194.45 195.843 189.087 193.268 184.052 193.459C181.694 193.552 180.29 195.256 179.295 197.542C177.647 201.323 177.348 195.977 179.474 193.634C182.081 190.759 185.903 191.312 189.88 192.771C191.553 193.384 199.584 198.612 200.239 197.102C196.346 194.709 192.297 192.05 188.429 190.71C185.843 189.812 183.33 189.708 180.838 189.469C179.366 189.33 178.195 189.866 177.67 191.669C177.183 193.333 176.42 194.739 175.72 196.393C171.44 194.383 178.847 187.948 180.566 187.517C185.267 186.337 191.119 190.189 196.45 192.882C196.662 189.122 182.469 185.819 181.141 185.72C179.174 185.574 177.326 186.211 175.719 187.086C173.171 188.475 174.724 195.061 171.871 193.692C172.271 195.438 172.652 197.02 172.985 198.591C173.259 199.885 174.68 205.129 173.702 204.883C170.443 195.138 170.906 191.986 173.944 187.096C175.782 184.706 177.406 182.698 180.256 182.962C181.43 183.072 191.13 186.264 191.034 185.091C187.455 183.371 183.921 182.012 180.427 181.188C175.62 180.051 172.65 182.34 171.43 187.684C171.267 188.401 169.976 193.593 169.097 192.335C171.169 195.098 171.461 198.09 172.007 200.993C172.851 205.447 172.734 205.736 175.108 210.681ZM180.304 218.796C180.116 216.567 178.261 200.908 179.3 201.315C179.906 203.593 181.594 219.356 180.304 218.796ZM182.051 214.212C181.73 210.488 181.406 206.765 181.083 203.037C181.686 202.885 182.574 204.988 182.585 205.791C182.601 206.933 182.725 214.577 182.051 214.212Z" fill="#FA8BEB"/>
<path d="M168.666 192.499C168.709 191.823 168.144 191.675 170.667 186.732C171.477 184.969 172.211 183.147 173.153 181.544C175.198 178.067 178.765 178.201 182.511 178.818C183.006 178.898 186.426 178.956 184.753 178.484C180.523 177.302 176.349 176.376 173.129 178.592C170.119 180.664 168.687 184.841 167.689 189.317C167.274 191.122 167.168 191.122 165.71 189.549C166.415 187.123 167.036 184.648 167.825 182.34C169.22 178.269 172.005 176.451 175.479 175.831C176.869 175.584 179.303 176.138 180.173 174.781C176.232 174.589 172.181 174.154 169.199 176.535C166.918 178.354 164.764 188.988 162.732 187.804C163.372 185.191 163.741 183.016 164.41 181.149C165.102 179.219 165.858 177.258 166.988 175.887C169.675 172.619 173.181 172.174 177.174 171.843C176.79 170.357 173.423 170.574 172.611 170.718C170.514 171.093 168.518 171.798 166.64 172.699C165.147 173.416 164.178 174.98 163.757 177.184C163.289 179.642 162.68 181.988 162.321 184.527C162.096 186.121 161.632 187.057 160.088 186.565C159.387 182.829 161.744 178.281 162.512 175.381C163.482 171.711 166.18 170.837 168.78 169.829C169.723 169.462 170.701 169.174 171.661 168.85C171.162 167.5 168.714 168.581 168.008 168.812C166.015 169.468 163.922 169.975 162.188 171.129C159.647 172.821 159.146 176.751 158.944 180.869C158.902 181.727 158.93 182.637 158.823 183.444C158.593 185.169 157.622 185.477 155.818 184.298C156.187 183.618 156.653 183.12 156.826 182.371C157.231 180.613 157.538 178.769 157.802 176.899C158.628 171.026 160.887 167.214 165.689 166.962C166.758 166.904 167.765 166.652 168.742 166.059C165.613 164.781 162.125 165.767 159.521 166.482C156.81 167.229 156.203 170.635 156.047 174.412C155.95 176.782 155.796 179.137 155.435 181.316C155.251 182.414 154.546 183.1 154.048 184.018C157.026 186.566 158.312 191.073 160.513 194.797C161.913 197.17 163.361 199.504 164.936 201.729C162.568 196.336 160.8 190.682 156.897 186.143C157.5 185.435 158.562 186.034 159.358 187.534C160.798 190.253 162.091 193.065 163.429 195.846C164.597 198.275 165.722 200.729 166.936 203.131C167.223 203.698 167.792 204.107 168.233 204.587C168.6 204.072 167.984 203.536 167.644 202.714C165.786 198.242 164.11 193.785 161.805 189.504C161.456 188.855 160.979 188.289 160.46 187.542C163.426 188.369 164.57 191.471 165.669 194.452C166.552 196.846 167.184 199.284 168.065 201.674C168.522 202.911 169.28 204.093 170.146 205.19C168.278 200.073 167.919 194.837 164.693 189.982C165.388 189.49 166.531 191.167 166.988 192.454C168.729 197.376 170.26 202.323 171.921 207.254C172.217 207.268 171.617 204.057 171.728 204.564C170.652 200.824 168.883 195.964 168.666 192.499Z" fill="#FA8BEB"/>
<path d="M118.606 171.586C122.644 172.68 126.663 173.628 130.721 174.881C132.92 175.561 135.008 177.243 136.604 180.424C137.844 182.896 139.463 184.743 141.404 185.886C138.782 181.591 136.398 176.984 132.569 174.269C134.296 171.261 137.163 170.401 138.591 166.512C139.97 162.757 141.275 158.913 143.637 156.298C144.338 155.523 145.127 154.878 145.877 154.174C145.352 153.18 144.109 154.276 143.68 154.649C140.8 157.148 138.612 160.552 137.079 164.815C135.807 168.359 133.607 170.682 131.029 172.323C130.017 172.968 128.413 172.629 127.006 172.382C124.181 171.882 121.304 171.124 118.452 170.5C118.091 170.419 117.758 170.485 117.412 170.484C117.556 171.29 118.019 171.428 118.606 171.586Z" fill="#FA8BEB"/>
<path d="M162.968 162.619C160.796 161.686 159.029 161.684 157.565 162.533C154.124 164.523 151.765 167.868 151.327 173.567C151.16 175.735 150.885 177.835 150.587 179.91C150.505 180.479 149.56 181.687 149.96 182.144C152.794 185.38 154.627 189.526 156.757 193.361C158.656 196.779 160.938 199.292 163.519 201.52C161.633 198.164 159.573 194.915 157.531 191.692C155.3 188.164 151.626 184.516 152.696 180.9C153.318 178.793 153.803 176.464 153.877 173.954C154.023 168.893 155.658 165.716 158.779 164.222C160.062 163.598 161.455 163.187 162.968 162.619Z" fill="#FA8BEB"/>
<path d="M152.901 160.42C150.146 162.451 148.793 166.137 148.214 170.642C147.892 173.138 147.645 175.687 147.229 178.108C147.083 178.946 146.529 179.462 146.22 180.022C148.024 183.014 149.771 185.882 151.491 188.768C153.191 191.62 154.404 194.099 156.569 196.183C155.088 193.097 153.993 190.504 152.643 188.098C151.533 186.118 150.153 184.311 148.829 182.52C148.006 181.407 147.875 180.611 148.141 179.633C148.876 176.926 149.795 174.338 150.174 171.359C150.971 165.083 153.318 161.058 158.049 160.14C159.309 159.898 153.993 159.615 152.901 160.42Z" fill="#FA8BEB"/>
<path d="M135.152 175.877C138.826 177.919 140.694 182.129 143.146 185.376C143.495 185.839 145.781 188.199 145.318 187.422C143.694 184.791 142.097 182.134 140.411 179.568C139.93 178.836 139.19 178.397 138.587 177.78C138.002 177.183 137.243 175.723 138.204 175.662C141.796 175.424 142.545 171.404 143.324 167.689C144.255 163.256 145.781 159.697 148.618 157.592C149.036 157.284 149.349 156.795 149.545 156.061C145.448 156.395 141.831 162.06 141.017 167.052C140.38 170.953 138.346 173.003 136.106 174.821C135.856 175.023 135.656 175.317 135.152 175.877Z" fill="#FA8BEB"/>
<path d="M153.384 156.28C152.069 157.289 150.668 158.159 149.459 159.332C146.632 162.068 145.037 166.154 144.171 171.135C143.802 173.258 142.747 174.859 141.88 176.556C141.588 177.126 140.915 177.251 140.282 177.671C142.213 180.37 144.235 182.12 145.974 185.307C146.965 187.13 147.928 189.051 149.647 189.768C147.116 186.666 146.251 181.983 142.806 179.415C143.382 178.317 143.995 177.465 144.368 176.371C145.098 174.234 145.936 172.143 146.284 169.704C146.861 165.673 148.226 162.604 150.337 160.311C151.001 159.59 154.147 157.728 153.384 156.28Z" fill="#FA8BEB"/>
<path d="M187.312 208.156C194.814 210.908 202.353 215.163 209.938 219.645C208.113 215.525 192.684 207.58 187.312 208.156Z" fill="#FA8BEB"/>
<path d="M1.09534 627.267C3.97426 621.647 7.12448 616.245 8.19017 610.697C8.70957 607.999 9.39393 605.332 10.4798 602.551C11.0843 601.011 8.37846 603.312 8.08608 604.741C7.69175 606.671 7.44544 608.56 7.07672 610.483C6.38496 614.079 5.11012 617.745 3.04533 621.451C1.70464 623.858 -0.970875 630.458 -3.37359 631.968C-1.29815 627.501 1.10753 623.082 2.29592 618.625C3.47431 614.207 4.96206 609.72 6.2961 605.32C4.47712 606.045 3.97896 607.339 3.51946 609.228C2.56813 613.124 1.46943 617.104 -0.0476903 621.08C-1.287 624.327 -3.50501 631.062 -6.43666 633.8C-2.79949 625.244 -0.25998 616.846 2.72043 608.018C0.499195 609.792 -0.228686 611.6 -0.649194 613.305C-1.78279 617.899 -2.41184 621.512 -4.48461 626.323C-6.20564 630.313 -7.91632 634.193 -10.2559 638.088C-11.4186 637.952 0.63069 613.141 -1.99734 613.597C-3.15644 617.365 -12.3733 639.031 -13.2944 640.909C-14.5254 640.863 -3.03997 617.228 -4.89228 616.606C-5.32534 618.13 -12.6869 637.568 -16.2025 642.622C-16.9556 642.569 -9.69795 627.067 -9.14046 625.845C-10.247 627.303 -17.7669 643.852 -19.1192 643.694C-18.0105 641.23 -11.2708 629.713 -12.2433 628.89C-13.5556 630.658 -20.0292 642.645 -20.8865 644.132C-21.6518 644.011 -11.2516 625.307 -11.5648 624.329C-12.6454 625.111 -22.0338 644.632 -22.8809 645.28C-24.2851 644.982 -15.9049 629.781 -14.7966 627.284C-16.0381 627.124 -23.4721 645.123 -24.5365 644.986C-23.219 641.843 -19.181 633.271 -17.8612 630.126C-18.6397 630.108 -25.3032 643.853 -25.9847 645.141C-27.1512 644.974 -24.4777 641.064 -23.8058 639.769C-24.3212 639.428 -27.248 643.415 -27.9287 644.22C-28.5253 643.86 -27.5202 642.85 -26.9482 642.025C-26.4623 641.326 -25.9567 640.634 -25.2698 639.67C-27.0609 640.432 -28.2479 642.608 -30.192 642.689C-27.7283 640.274 -25.5591 638.107 -23.3507 636.001C-22.5285 635.217 -21.6129 634.569 -21.6356 633.251C-24.7648 635.637 -26.8061 639.632 -30.2998 641.36C-29.2801 640.154 -22.5559 632.94 -22.9063 632.228C-25.0514 634.01 -27.1965 635.792 -29.3416 637.573C-30.1388 636.253 -19.0041 628.164 -17.5985 627.239C-17.0225 626.862 -16.4699 626.346 -15.9853 625.703C-18.2197 626.416 -20.2353 627.944 -22.2456 629.674C-23.5071 630.76 -27.8902 635.109 -28.3764 633.967C-24.2715 630.488 -17.6963 624.832 -13.9419 622.318C-15.1571 621.291 -23.7282 627.711 -27.5526 630.289C-27.8721 629.659 -26.4548 628.621 -25.7402 628.027C-20.9553 624.051 -16.0218 621.727 -11.0777 619.643C-9.49027 618.972 -8.24482 617.81 -6.90662 615.998C-13.4009 619.544 -19.6197 620.749 -25.8625 625.599C-22.0287 621.41 -17.8337 619.311 -13.5885 617.43C-17.0248 617.798 -20.5504 619.395 -24.1855 621.769C-23.0961 620.025 -21.5913 619.129 -20.3073 618.632C-15.1567 616.638 -10.006 614.312 -4.82686 611.539C-3.84412 611.014 -2.80456 610.617 -1.87154 610.438C-0.718647 610.217 -0.0164892 609.394 0.540629 608.627C-6.88679 611.848 -14.4383 615.124 -21.9875 618.397C-21.9545 616.797 -18.1271 615.436 -17.0521 614.978C-15.117 614.153 -13.1887 613.511 -11.2535 612.591C-9.06087 611.549 -6.86281 610.285 -4.66903 608.918C-9.44893 610.626 -13.9293 610.513 -18.9835 614.238C-19.0205 613.015 -16.8363 611.894 -15.7005 611.363C-13.8166 610.481 -11.9431 609.863 -10.0622 609.129C-7.14615 607.99 -4.23006 606.851 -1.31197 605.7C-0.195565 605.26 0.925506 604.79 2.04458 604.333C2.1745 603.647 -8.09388 606.401 -8.9958 606.658C-11.5103 607.376 -14.101 608.464 -16.5996 609.365C-15.1597 607.814 -13.4052 606.832 -11.6904 606.274C-9.03615 605.414 -6.40531 604.724 -3.79177 604.071C-0.582484 603.269 2.60915 602.543 5.78479 601.869C6.48631 601.72 7.20037 601.776 7.71014 602.023C8.68943 602.497 9.66153 601.968 10.7999 600.861C11.1759 600.494 11.6496 600.271 12.3602 599.794C11.3678 603.432 10.5861 607.034 10.0032 610.562C9.33261 614.623 5.97718 624.366 1.09534 627.267ZM-10.073 625.056C-9.17665 622.693 -7.62284 620.173 -8.63571 618.741C-9.21676 619.778 -11.217 625.323 -10.073 625.056ZM0.574385 606.78C1.92603 606.132 3.13634 606.919 5.01725 604.584C4.03409 604.957 0.771461 605.626 0.574385 606.78ZM-3.97208 612.295C-5.6648 613.292 -7.00687 614.08 -8.3496 614.872C-6.73893 614.987 -5.16438 614.404 -3.97208 612.295Z" fill="#F54A80"/>
<path d="M20.7398 605.785C22.4007 601.43 22.3993 597.224 25.7287 592.731C23.7579 593.025 23.1346 594.416 22.3357 596.703C21.4395 599.266 20.9817 601.78 20.335 604.318C19.7089 606.775 18.1932 609.046 16.348 611.289C17.3696 608.496 18.393 605.705 19.4107 602.913C20.4357 600.099 21.4527 597.288 22.5064 594.39C21.8078 594.532 21.1461 594.927 20.7658 596.075C20.0937 598.1 19.391 600.128 18.6666 602.161C17.4158 605.677 16.1973 609.191 14.832 612.714C14.2074 614.325 12.0154 615.857 10.7657 616.93C11.1644 615.676 13.7996 609.041 12.8806 609.061C11.534 613.233 9.83227 617.359 6.74228 621.337C6.80791 621.104 8.09959 618.464 8.22641 618.25C11.4631 612.804 10.5832 610.133 12.1391 604.914C12.4995 603.707 14.5734 599.71 13.3007 599.377C11.7317 598.966 9.98495 598.841 8.50279 598.301C4.01375 596.664 -1.47863 597.741 -7.18848 599.433C-8.92293 599.948 -10.832 601.685 -12.5076 602.031C-4.71627 594.136 6.7829 594.814 12.1138 597.631C13.6331 598.434 14.1716 598.384 16.3599 596.521C13.3436 594.353 9.76266 593.163 5.3993 593.097C0.968098 593.03 -3.80752 595.559 -8.56064 597.63C-8.55958 597.494 -8.55852 597.358 -8.55347 597.22C-7.99088 596.855 -7.4326 596.458 -6.86636 596.129C-3.71116 594.299 -0.593449 592.267 2.57983 591.667C8.43775 590.559 13.397 590.888 16.2146 595.014C16.7607 595.811 17.3933 596.587 19.031 595.061C15.0081 587.185 6.52023 587.789 -3.78189 591.82C-3.3815 590.284 -0.480181 589.363 0.758359 589.04C6.40824 587.558 11.9059 586.542 16.4722 587.956C18.6102 588.62 19.5074 590.513 19.8981 592.832C20.5466 596.668 22.0374 591.891 20.6248 589.242C18.8921 585.991 15.2663 585.552 11.2922 585.895C9.62086 586.039 1.07686 588.805 0.820687 587.274C4.93016 586.061 9.24298 584.646 13.0903 584.382C15.6634 584.205 17.988 584.73 20.3237 585.127C21.7035 585.363 22.6534 586.138 22.7235 587.903C22.7906 589.533 23.1694 590.997 23.4334 592.67C27.8109 591.9 22.4934 584.237 21.0179 583.423C16.9817 581.194 10.7461 583.248 5.25123 584.378C5.91375 580.914 19.6616 581.413 20.9 581.651C22.7351 582.002 24.2816 583.036 25.5539 584.225C27.5713 586.113 24.6493 591.707 27.5726 591.167C26.8097 592.653 26.0999 593.994 25.4371 595.338C24.8914 596.445 22.3963 600.852 23.3476 600.87C28.5517 592.831 28.8454 589.857 27.1774 584.672C26.0385 582.051 25.0091 579.829 22.3385 579.366C21.2392 579.177 11.6297 579.684 11.985 578.643C15.6535 577.964 19.1991 577.601 22.5864 577.714C27.2474 577.866 29.4456 580.675 29.3448 585.824C29.331 586.516 29.3307 591.544 30.4223 590.619C27.8953 592.616 26.9468 595.259 25.7853 597.758C23.9982 601.592 24.0395 601.883 20.7398 605.785ZM14.1333 611.868C14.8137 609.892 20.0785 596.141 19.0342 596.254C17.9602 598.172 12.8248 612.059 14.1333 611.868ZM13.5779 607.279C14.7205 603.979 15.8648 600.68 17.0098 597.377C16.4917 597.091 15.2003 598.78 15.0072 599.506C14.7325 600.539 12.878 607.444 13.5779 607.279Z" fill="#F54A80"/>
<path d="M30.7797 590.874C30.8938 590.25 31.4452 590.256 30.2611 585.149C29.921 583.349 29.6637 581.516 29.1659 579.829C28.0856 576.17 24.7882 575.414 21.2183 575.05C20.7461 575.002 17.6019 574.212 19.241 574.196C23.3839 574.165 27.4162 574.352 29.8606 577.156C32.1446 579.778 32.5041 583.92 32.399 588.228C32.3673 589.968 32.4651 589.994 34.1578 588.926C34.0648 586.551 34.0605 584.152 33.863 581.864C33.5136 577.826 31.3773 575.491 28.337 574.073C27.1208 573.505 24.7658 573.409 24.2786 571.964C27.9302 572.76 31.7392 573.364 33.9274 576.258C35.6016 578.471 35.1518 588.65 37.2823 588.076C37.2914 585.547 37.4487 583.483 37.2616 581.624C37.0676 579.702 36.822 577.737 36.0996 576.215C34.3831 572.588 31.2746 571.32 27.6929 570.037C28.3835 568.783 31.4169 569.808 32.1278 570.139C33.963 570.997 35.6298 572.127 37.1442 573.408C38.3478 574.426 38.8785 576.084 38.7622 578.187C38.6314 580.533 38.655 582.812 38.4055 585.204C38.2478 586.705 38.4596 587.669 39.9859 587.603C41.4782 584.385 40.3557 579.678 40.3137 576.858C40.2611 573.289 37.9897 571.832 35.8379 570.276C35.0582 569.712 34.2289 569.209 33.4229 568.679C34.1878 567.577 36.1832 569.16 36.7764 569.544C38.4523 570.63 40.2535 571.606 41.5783 573.08C43.5197 575.241 43.083 578.931 42.3306 582.717C42.1739 583.505 41.9407 584.324 41.8549 585.083C41.6723 586.705 42.4915 587.223 44.4116 586.598C44.2286 585.89 43.9156 585.323 43.9276 584.601C43.9576 582.906 44.0964 581.158 44.2808 579.395C44.862 573.863 43.6615 569.848 39.3213 568.436C38.3563 568.121 37.4907 567.644 36.7321 566.866C39.888 566.476 42.8574 568.23 45.0788 569.52C47.3908 570.866 47.1715 574.106 46.4535 577.571C46.0028 579.746 45.6071 581.92 45.4418 583.987C45.3599 585.028 45.8494 585.824 46.0965 586.78C42.789 588.358 40.5852 592.131 37.7216 594.968C35.8988 596.776 34.0421 598.537 32.093 600.168C35.4891 595.858 38.3958 591.163 43.0041 588.006C42.6125 587.215 41.5033 587.497 40.4334 588.662C38.4957 590.775 36.6711 593.007 34.8129 595.201C33.1899 597.117 31.6012 599.067 29.9424 600.948C29.5503 601.391 28.9356 601.622 28.4226 601.949C28.2045 601.392 28.8905 601.057 29.3891 600.395C32.1085 596.794 34.6581 593.164 37.7442 589.846C38.2117 589.344 38.7773 588.948 39.4224 588.398C36.5178 588.417 34.7639 590.95 33.0785 593.385C31.7249 595.34 30.5912 597.395 29.2399 599.347C28.54 600.357 27.5768 601.243 26.534 602.025C29.4096 597.842 30.931 593.18 34.991 589.569C34.4662 588.952 33.0378 590.191 32.3265 591.247C29.6114 595.284 27.0822 599.395 24.4387 603.461C24.1639 603.4 25.4454 600.635 25.2283 601.067C27.0651 597.939 29.7915 593.965 30.7797 590.874Z" fill="#F54A80"/>
<path d="M81.3815 584.23C77.4346 584.228 73.5382 584.099 69.537 584.235C67.369 584.31 65.0736 585.322 62.888 587.816C61.1899 589.753 59.2862 591.03 57.2484 591.589C60.6277 588.338 63.8599 584.745 67.9848 583.225C67.0878 580.07 64.6586 578.584 64.2373 574.703C63.8299 570.957 63.5099 567.148 61.9431 564.193C61.4775 563.317 60.9021 562.538 60.3753 561.714C61.0821 560.941 61.9715 562.242 62.279 562.686C64.3464 565.663 65.5751 569.291 66.0082 573.536C66.3655 577.065 67.851 579.715 69.838 581.839C70.6179 582.673 72.1632 582.761 73.5085 582.883C76.2088 583.125 79.0162 583.146 81.7694 583.282C82.118 583.298 82.4086 583.44 82.7256 583.524C82.4097 584.22 81.9547 584.231 81.3815 584.23Z" fill="#F54A80"/>
<path d="M42.8018 565.166C45.0038 564.855 46.622 565.288 47.7696 566.419C50.4665 569.073 51.8651 572.689 50.9677 577.968C50.6269 579.976 50.4012 581.949 50.2007 583.905C50.1468 584.441 50.7365 585.77 50.2663 586.087C46.9343 588.324 44.3119 591.635 41.4878 594.59C38.9701 597.224 36.3086 598.942 33.4379 600.327C35.9296 597.747 38.5558 595.306 41.1589 592.885C44.0061 590.233 48.2012 587.828 48.0446 584.284C47.9548 582.219 48.0409 579.986 48.5448 577.691C49.5643 573.063 48.7905 569.777 46.273 567.653C45.2404 566.77 44.0583 566.054 42.8018 565.166Z" fill="#F54A80"/>
<path d="M52.5215 565.651C54.5808 568.172 54.9803 571.85 54.4851 576.08C54.2113 578.424 53.8571 580.798 53.6867 583.097C53.6288 583.894 54.019 584.498 54.1744 585.083C51.8415 587.353 49.5885 589.525 47.3565 591.719C45.1494 593.888 43.4744 595.839 41.017 597.197C43.0762 594.762 44.6693 592.679 46.4535 590.828C47.921 589.305 49.5962 588.005 51.2165 586.706C52.2237 585.899 52.525 585.209 52.5041 584.256C52.4475 581.619 52.1958 579.044 52.527 576.248C53.2262 570.357 51.9941 566.127 47.8708 564.128C46.7721 563.599 51.7043 564.651 52.5215 565.651Z" fill="#F54A80"/>
<path d="M65.2535 584.048C61.4242 584.995 58.7542 588.355 55.7697 590.698C55.3444 591.032 52.7136 592.61 53.3152 592.019C55.4008 590.032 57.4685 588.015 59.597 586.101C60.2036 585.556 60.982 585.34 61.6746 584.928C62.3462 584.531 63.3734 583.393 62.5076 583.1C59.2729 582 59.5021 578.168 59.6355 574.605C59.7924 570.354 59.2056 566.749 57.0868 564.14C56.7743 563.757 56.5993 563.236 56.5873 562.522C60.262 563.834 62.2844 569.866 61.8928 574.596C61.5872 578.292 62.983 580.654 64.6198 582.855C64.8032 583.1 64.9188 583.415 65.2535 584.048Z" fill="#F54A80"/>
<path d="M53.0222 561.775C53.9958 563.014 55.0805 564.149 55.9211 565.512C57.8863 568.69 58.4163 572.79 58.0746 577.524C57.9287 579.54 58.5299 581.254 58.9379 583.006C59.0756 583.595 59.6632 583.875 60.1472 584.412C57.7646 586.385 55.5141 587.475 53.1957 589.939C51.873 591.348 50.5536 592.854 48.8163 593.081C51.8406 590.89 53.6997 586.854 57.4391 585.372C57.1609 584.235 56.7938 583.31 56.7015 582.226C56.5202 580.107 56.2288 578.004 56.4653 575.704C56.8555 571.905 56.3044 568.784 54.894 566.183C54.4505 565.365 51.9937 562.901 53.0222 561.775Z" fill="#F54A80"/>
<path d="M10.1399 600.488C2.64343 601.137 -5.22879 603.14 -13.1946 605.338C-10.5852 602.05 5.35225 598.641 10.1399 600.488Z" fill="#F54A80"/>
<path fill-rule="evenodd" clip-rule="evenodd" d="M220.036 305.79C219.3 305.917 217.125 306.76 215.201 307.663C211.319 309.486 208.917 310.015 203.03 310.342C192.916 310.904 181.795 313.618 176.832 316.735C175.032 317.866 169.954 322.012 166.79 324.936C162.713 328.702 161.452 329.62 154.178 334.119C150.899 336.147 147.22 338.662 146.004 339.709C139.772 345.074 138.272 346.436 136.308 348.512C135.132 349.754 133.355 351.977 132.358 353.451C130.843 355.693 130.439 356.586 129.893 358.892C129.035 362.522 129.202 365.963 130.405 369.47C131.74 373.356 132.078 373.982 133.83 375.799C134.665 376.665 136.261 376.716 136.269 376.881C136.277 377.045 134.327 378.614 133.041 379.4C129.75 381.412 127.788 382.914 122.645 387.36C116.299 392.847 112.985 396.439 112.727 398.112C112.558 399.208 113.931 398.926 115.199 397.604C115.807 396.971 117.334 395.208 118.592 393.687C121.285 390.43 124.198 387.55 126.895 385.479C127.962 384.66 129.652 383.341 130.651 382.55C134.119 379.8 136.547 378.126 136.926 378.22C137.136 378.272 135.433 381.081 134.847 383.29C133.578 388.078 133.608 390.004 134.98 391.696C136.314 393.34 138.004 393.949 142.29 394.331C149.432 394.968 158.569 392.961 165.033 389.335C177.479 382.352 186.224 375.719 199.302 363.345C209.42 353.771 215.692 345.621 219.364 337.276C222.997 329.016 224.297 312.929 221.832 306.713C221.39 305.6 221.326 305.567 220.036 305.79ZM216.181 323.457C217.078 325.419 215.37 327.073 212.084 327.422C209.534 327.694 206.006 326.82 205.322 325.747C204.809 324.941 205.708 323.793 207.897 322.461C209.871 321.259 211.518 320.783 212.874 321.024C214.118 321.245 215.703 322.41 216.181 323.457ZM199.674 315.536C199.66 315.914 199.183 317.32 198.615 318.66C198.047 319.999 197.199 322.685 196.732 324.628C196.032 327.537 195.705 328.338 194.88 329.167C193.603 330.451 192.529 330.729 191.566 330.025C189.995 328.876 191.086 325.412 194.973 319.216C196.968 316.034 197.496 315.36 198.295 314.974C199.392 314.445 199.71 314.575 199.674 315.536ZM217.835 334.936C216.662 336.54 211.087 338.381 207.58 338.324C205.242 338.285 200.67 337.185 199.602 336.404C198.402 335.526 197.597 333.693 197.985 332.719C198.464 331.514 201.162 330.323 203.579 330.251C205.941 330.18 207.965 330.776 211.539 332.594C213.119 333.398 214.653 333.911 215.318 333.859C217.37 333.697 218.414 334.144 217.835 334.936ZM185.137 319.874C184.717 321.791 184.258 324.702 184.117 326.343C183.7 331.196 182.791 332.324 180.275 331.111C177.654 329.848 177.74 328.565 180.924 321.447C182.89 317.054 183.573 316.005 184.653 315.722C185.869 315.402 185.956 316.14 185.137 319.874ZM200.208 343.379C200.606 344.793 197.593 345.098 193.35 344.072C190.712 343.434 189.767 342.553 190.558 341.471C191.546 340.121 194.055 339.854 196.444 340.846C198.889 341.862 199.989 342.602 200.208 343.379ZM203.948 354.726C204.013 355.404 202.263 356.313 200.379 356.58C195.373 357.289 187.857 356.629 183.556 355.103C179.948 353.822 177.953 350.877 179.376 348.931C180.451 347.461 182.279 346.503 184.278 346.361C187.373 346.142 188.252 346.422 197.745 350.662C199.695 351.534 201.629 352.413 202.043 352.616C202.954 353.063 203.888 354.098 203.948 354.726ZM170.016 333.793C170.837 336.69 170.617 339.997 169.216 345.823C168.127 350.353 166.897 351.384 164.559 349.728C163.316 348.849 163.312 348.83 163.716 345.871C164.246 341.979 165.415 337.56 166.688 334.634C168.308 330.911 169.139 330.701 170.016 333.793ZM157.064 343.174C156.951 351.71 156.015 356.824 154.082 359.467C152.63 361.453 151.793 361.522 149.598 359.839C147.41 358.162 147.105 356.598 148.195 352.645C149.549 347.734 150.48 345.803 153.154 342.365C155.516 339.327 156.362 338.725 156.893 339.701C157.009 339.915 157.086 341.478 157.064 343.174ZM181.393 360.307C182.512 362.678 181.88 363.682 179.139 363.886C176.519 364.081 173.155 363.319 169.671 361.741C164.507 359.403 164.46 358.408 169.459 357.249C173.173 356.388 174.871 356.385 177.5 357.231C179.887 358.001 180.551 358.525 181.393 360.307ZM183.438 373.471C183.536 375.382 180.001 376.95 176.39 376.599C175.201 376.483 172.514 376.483 170.419 376.598C161.686 377.08 155.365 375.054 154.686 371.556C154.497 370.582 154.647 370.166 155.699 368.746C156.773 367.298 157.17 367.013 158.719 366.575C159.7 366.297 160.944 366.096 161.483 366.128C163.354 366.238 166.976 367.328 171.374 369.104C173.826 370.094 177.179 371.114 178.903 371.394C182.222 371.933 183.386 372.466 183.438 373.471ZM140.349 358.277C141.04 360.018 141.484 363.722 141.323 366.4C141.071 370.587 138.962 371.833 136.286 369.377C134.664 367.889 134.109 366.238 134.425 363.846C134.68 361.915 136.162 358.242 137.328 356.647C137.934 355.818 138.085 355.797 138.943 356.425C139.463 356.805 140.096 357.638 140.349 358.277ZM163.071 386.838C162.989 389.025 148.634 386.631 144.467 383.734C139.622 380.366 143.531 376.652 149.323 379.12C159.724 383.553 163.123 385.461 163.071 386.838Z" fill="#BE53B0"/>
<path fill-rule="evenodd" clip-rule="evenodd" d="M4.55943 837.551C5.21774 837.232 7.0556 835.839 8.6433 834.457C11.8474 831.666 13.9702 830.513 19.4011 828.616C28.7314 825.355 38.4988 819.764 42.411 815.443C43.8302 813.876 47.6077 808.539 49.8826 804.887C52.813 800.184 53.7773 798.965 59.5274 792.7C62.1198 789.876 64.971 786.477 65.8631 785.147C70.4356 778.332 71.5195 776.625 72.87 774.108C73.6783 772.602 74.8194 769.995 75.4062 768.315C76.2979 765.761 76.4668 764.797 76.436 762.441C76.3874 758.734 75.4244 755.484 73.4757 752.45C71.3154 749.088 70.8523 748.58 68.787 747.311C67.8032 746.706 66.2982 747.086 66.2519 746.931C66.2053 746.776 67.6623 744.749 68.6806 743.65C71.2876 740.838 72.7708 738.872 76.5395 733.23C81.1896 726.268 83.447 721.937 83.296 720.265C83.1975 719.17 81.9791 719.809 81.1024 721.416C80.6823 722.186 79.6674 724.285 78.8475 726.081C77.0921 729.924 75.0424 733.466 73.005 736.175C72.1983 737.247 70.9264 738.964 70.1783 739.991C67.5789 743.557 65.6993 745.814 65.3232 745.826C65.1149 745.833 66.0488 742.684 66.0786 740.412C66.1432 735.484 65.6632 733.648 63.9828 732.398C62.3494 731.182 60.6253 731.054 56.5256 731.841C49.6945 733.153 41.6174 737.535 36.4209 742.746C26.4147 752.783 19.7889 761.488 10.4565 776.857C3.23661 788.748 -0.719271 798.241 -2.19702 807.22C-3.65904 816.107 -1.1011 831.862 2.66279 837.15C3.33687 838.097 3.40458 838.112 4.55943 837.551ZM4.02204 819.597C2.72238 817.958 3.93231 815.915 6.92432 814.696C9.24678 813.75 12.7526 813.638 13.6436 814.48C14.313 815.114 13.7408 816.456 12.006 818.321C10.4409 820.003 9.01166 820.901 7.68625 821.036C6.47058 821.16 4.71497 820.47 4.02204 819.597ZM21.3226 822.738C21.2472 822.373 21.3633 820.898 21.581 819.463C21.7984 818.027 21.9611 815.227 21.9425 813.241C21.9152 810.266 22.0328 809.411 22.6103 808.395C23.5039 806.822 24.4435 806.267 25.5096 806.682C27.2492 807.36 27.0405 810.971 24.858 817.95C23.7377 821.533 23.4015 822.322 22.7449 822.906C21.8428 823.708 21.5143 823.669 21.3226 822.738ZM-0.217876 809.049C0.502874 807.198 5.28701 803.934 8.5817 803.045C10.7775 802.453 15.3136 802.276 16.4956 802.736C17.8242 803.254 19.0073 804.793 18.873 805.83C18.707 807.113 16.462 808.979 14.2182 809.699C12.0253 810.403 9.99207 810.377 6.22196 809.597C4.555 809.252 2.99969 809.174 2.38971 809.403C0.508033 810.11 -0.574125 809.963 -0.217876 809.049ZM33.905 814.672C33.8485 812.724 33.5952 809.813 33.3423 808.203C32.5943 803.443 33.1796 802.119 35.8177 802.603C38.5668 803.108 38.787 804.359 37.4774 812.032C36.6688 816.768 36.2757 817.957 35.3325 818.518C34.269 819.152 34.0151 818.469 33.905 814.672ZM14.2929 796.22C13.5883 794.973 16.3354 793.871 20.5456 793.711C23.1631 793.612 24.2543 794.201 23.7676 795.45C23.1605 797.009 20.8755 797.94 18.4082 797.632C15.8822 797.318 14.6801 796.905 14.2929 796.22ZM8.13192 786.361C7.91215 785.729 9.33569 784.388 11.0362 783.625C15.5526 781.599 22.7397 780.208 27.1208 780.511C30.7973 780.767 33.354 783.051 32.479 785.297C31.8181 786.994 30.3331 788.404 28.4959 789.078C25.6516 790.12 24.7644 790.088 14.8886 788.583C12.8598 788.273 10.8441 787.952 10.4092 787.869C9.45224 787.686 8.33544 786.946 8.13192 786.361ZM44.7869 797.274C43.339 794.721 42.7689 791.495 42.7131 785.539C42.6696 780.908 43.5785 779.59 46.1548 780.546C47.5232 781.054 47.5312 781.071 47.8479 784.012C48.2646 787.883 48.2074 792.429 47.7027 795.573C47.0604 799.575 46.3322 800 44.7869 797.274ZM54.7035 784.805C52.8072 776.601 52.4831 771.452 53.6712 768.401C54.5643 766.108 55.3305 765.816 57.7797 766.838C60.2195 767.855 60.8714 769.27 60.7793 773.349C60.6648 778.416 60.2465 780.515 58.5513 784.528C57.0537 788.072 56.4043 788.877 55.6782 788.085C55.519 787.911 55.0802 786.435 54.7035 784.805ZM27.9244 774.947C26.3207 772.977 26.6766 771.846 29.1933 770.913C31.5983 770.021 34.9244 769.845 38.5543 770.418C43.9333 771.268 44.2107 772.208 39.806 774.663C36.5329 776.487 34.9453 776.947 32.2879 776.844C29.8735 776.75 29.1298 776.426 27.9244 774.947ZM22.9234 762.891C22.3833 761.087 25.3224 758.634 28.7835 757.999C29.9231 757.79 32.4369 757.067 34.3697 756.392C42.4265 753.581 48.8154 753.82 50.2712 756.987C50.6767 757.869 50.6338 758.308 49.9818 759.95C49.3168 761.626 49.0129 762.005 47.6662 762.842C46.8134 763.373 45.697 763.9 45.1852 764.014C43.4087 764.412 39.7646 764.343 35.2341 763.826C32.7071 763.538 29.332 763.464 27.6532 763.659C24.4216 764.036 23.2075 763.839 22.9234 762.891ZM66.798 765.845C65.7439 764.363 64.4597 760.935 63.9822 758.328C63.2356 754.251 64.9165 752.489 67.9964 754.122C69.8626 755.11 70.7694 756.542 71.0345 758.917C71.2485 760.835 70.7241 764.751 70.0069 766.592C69.6343 767.549 69.4979 767.61 68.5484 767.24C67.9724 767.016 67.1849 766.388 66.798 765.845ZM38.8419 744.61C38.4058 742.493 52.3969 740.922 56.9748 742.575C62.2976 744.496 59.5113 749.105 53.5137 748.3C42.7436 746.855 39.1161 745.942 38.8419 744.61Z" fill="#E48EF9"/>
<path d="M225.222 825.811C235.009 822.694 216.912 805.247 212.878 803.087C208.408 800.69 200.909 806.091 196.958 807.761C199.745 804.756 202.642 801.846 205.059 798.522C207.896 794.606 200.355 791.086 197.839 789.541C193.536 786.901 190.595 797.262 186.814 798.41C188.632 795.174 190.677 791.947 191.867 788.4C192.672 785.989 192.025 783.749 189.754 782.62C186.653 781.077 183.341 779.921 180.043 778.844C172.911 776.51 173.303 788.86 168.635 790.326C169.555 786.437 170.695 782.521 170.114 778.454C168.715 768.704 147.479 767.113 139.352 768.768C135.327 769.59 132.802 772.48 132.902 776.685C132.991 780.477 134.073 784.228 134.707 787.966C127.025 785.65 119.402 783.125 111.704 780.868C107.405 779.608 100.684 783.393 107.072 784.961C119.02 787.897 130.971 790.817 142.54 795.15C158.488 801.126 173.803 808.566 187.766 818.466C194.574 823.293 201.204 828.534 207.17 834.352C214.059 841.07 220.495 848.336 225.594 856.613C228.195 860.837 230.73 865.099 233.298 869.342C236.182 874.105 239.231 867.789 240.048 864.546C241.695 857.996 242.402 851.283 240.071 844.673C238.966 841.538 237.439 838.524 235.862 835.583C233.806 831.748 230.175 830.321 226.147 830.432C220.871 830.576 215.611 831.536 210.431 832.448C209.295 829.773 223.513 826.355 225.222 825.811Z" fill="#FF62EA"/>
<path d="M323.047 171.454C326.867 181.778 296.86 176.208 291.88 173.959C286.358 171.469 286.409 161.803 285.274 157.394C284.268 161.569 283.434 165.783 281.853 169.82C279.983 174.568 271.186 170.062 267.884 168.774C262.24 166.571 270.408 157.979 268.877 154.022C266.96 157.489 265.212 161.147 262.545 164.247C260.73 166.351 258.059 167.093 255.342 165.777C251.629 163.979 248.151 161.773 244.761 159.533C237.425 154.692 249.909 147.84 248.067 142.927C244.871 145.992 241.804 149.264 237.374 151.129C226.749 155.592 210.202 138.055 206.107 130.026C204.082 126.047 205.158 122.168 209.386 119.807C213.197 117.675 217.668 116.43 221.811 114.804C214.104 109.475 206.233 104.318 198.573 98.9398C194.296 95.9363 193.298 87.8887 199.353 92.529C210.68 101.206 221.994 109.895 234.435 117.429C251.588 127.814 269.742 136.794 289.375 143.168C298.947 146.275 308.803 148.986 318.761 150.783C330.26 152.86 341.981 154.223 353.758 153.834C359.768 153.635 365.769 153.357 371.774 153.118C378.516 152.851 374.423 159.181 371.793 161.779C366.479 167.028 360.341 171.553 352.164 173.376C348.285 174.242 344.229 174.67 340.21 175.012C334.969 175.458 330.998 173.132 328.267 169.566C324.69 164.895 321.929 159.763 319.178 154.728C315.733 155.298 322.38 169.651 323.047 171.454Z" fill="#CC3AB8"/>
<path d="M126.183 610.314C123.918 607.169 123.151 603.067 123.229 598.513C123.245 597.52 123.936 596.014 124.682 595.13C127.218 592.114 130.325 590.362 133.416 588.671C134.955 587.828 136.489 586.958 138.033 586.157C139.824 585.23 140.175 585.529 140.048 587.5C139.975 588.602 139.442 591.318 140.528 591.245C140.769 590.587 141.089 589.923 141.237 589.271C142.278 584.643 143.858 582.728 147.945 581.11C151.779 579.591 155.624 577.674 159.436 576.563C164.623 575.048 169.567 571.761 174.661 569.623C182.901 566.167 190.851 564.71 198.687 564.61C198.843 564.607 198.985 564.657 199.141 564.649C204.796 564.397 204.002 566.095 202.423 571.339C202.148 572.254 201.714 573.149 202.429 573.398C203.394 571.929 204.364 570.463 205.325 568.991C207.909 565.017 208.395 564.611 211.885 565.199C214.413 565.626 216.791 566.473 219.18 567.246C221.714 568.065 222.58 570.478 222.925 573.419C223.079 574.716 223.733 575.775 223.88 577.072C224.006 578.178 224.068 579.564 223.586 580.673C221.059 586.457 217.46 591.382 212.548 595.147C210.989 596.342 209.489 597.691 208.001 599.033C205.853 600.969 203.967 601.362 202.231 600.097C201.514 599.572 200.661 599.243 199.871 598.825C199.081 599.48 199.787 600.8 199.97 601.541C200.141 602.219 200.46 602.818 200.543 603.531C200.761 605.398 200.093 606.472 198.316 607.096C195.987 607.914 193.685 608.683 191.499 610.623C191.028 611.043 189.713 611.111 189.573 610.755C188.589 608.192 186.079 607.864 184.195 606.64C182.266 605.384 176.032 599.069 173.386 600.512C173.87 601.464 174.135 602.714 174.876 603.316C177.131 605.149 179.55 606.762 181.944 608.403C183.987 609.803 185.154 612.024 185.792 614.701C185.906 615.184 185.452 616.428 185.028 616.749C183.013 618.278 180.919 619.621 178.85 621.008C178.597 621.178 178.273 621.359 178.048 621.336C175.503 621.109 172.926 623.441 170.376 623.835C170.01 623.892 169.618 624.087 169.239 624.236C166.389 625.379 166.314 625.431 165.527 622.589C164.214 617.852 161.155 612.502 156.598 611.391C156.572 611.384 156.512 611.459 156.2 611.725C156.725 612.594 157.228 613.471 157.773 614.31C159.123 616.393 160.516 618.432 161.837 620.539C162.204 621.121 162.476 621.828 162.641 622.566C163.601 626.895 162.648 627.085 159.618 628.418C157.182 629.488 154.807 631.336 152.414 632.872C150.905 633.84 149.415 634.892 147.904 635.859C146.75 636.599 146.168 636.399 145.892 635.084C145.087 631.212 143.18 628.283 140.496 626.025C141.092 628.338 141.719 630.632 142.281 632.966C142.884 635.466 142.161 637.729 139.669 638.958C133.26 642.119 126.774 645.292 120.458 644.777C118.18 644.591 116.599 643.428 116.075 641.014C115.428 638.038 114.954 634.965 114.439 631.913C114.255 630.822 114.089 629.709 114.059 628.551C114.006 626.595 112.929 626.733 111.527 627.584C107.636 629.94 103.717 632.211 99.8796 634.756C94.4799 638.335 89.1158 642.053 83.7902 645.864C80.7256 648.057 77.7788 650.587 74.7483 652.88C74.1885 653.305 73.4642 653.328 72.8169 653.537C72.9352 652.726 72.8055 651.709 73.2224 651.142C74.5085 649.399 75.8808 647.592 77.4377 646.223C85.7326 638.942 94.363 632.572 103.532 627.786C105.825 626.589 108.105 625.287 110.378 623.985C111.761 623.194 112.855 620.071 112.353 618.271C112.05 617.188 111.652 616.158 111.186 615.194C109.163 610.988 110.897 607.488 113.755 603.675C114.39 602.829 115.122 602.037 115.874 601.326C117.472 599.816 118.175 599.884 118.429 601.794C118.839 604.897 120.008 607.356 121.798 609.311C123.3 610.95 125.055 612.224 127.26 612.751C128.01 611.864 126.612 610.909 126.183 610.314Z" fill="#C00BA8"/>
<path d="M41 992C99.181 983.845 94.5 907.424 105 824.358C115.5 741.293 42 700.012 86 577.678C130 455.345 105 426.65 105 269.58C105 112.511 170.924 72.1623 236 98.4146" stroke="#FF62EA" stroke-width="5"/>
<path d="M41 992C99.181 983.845 94.5 907.424 105 824.358C115.5 741.293 42 700.012 86 577.678C130 455.345 105 426.65 105 269.58C105 112.511 170.924 72.1623 236 98.4146" stroke="#DA2EC3" stroke-width="2"/>
</svg>
