<svg width="427" height="992" viewBox="0 0 427 992" fill="none" xmlns="http://www.w3.org/2000/svg">
<path d="M417.44 506.3C426.818 512.067 399.768 526.201 394.462 527.505C388.58 528.953 382.655 521.316 379.042 518.547C380.826 522.453 382.77 526.283 384.018 530.436C385.476 535.326 375.773 537.209 372.38 538.234C366.579 539.983 367.705 528.181 364.058 526.013C364.689 529.924 365.571 533.881 365.386 537.966C365.256 540.742 363.612 542.975 360.662 543.615C356.631 544.492 352.533 544.903 348.483 545.232C339.723 545.95 345.318 532.854 340.836 530.125C340.213 534.509 339.819 538.976 337.484 543.177C331.877 553.246 308.035 549.659 299.858 545.868C295.809 543.987 294.262 540.271 296.131 535.803C297.815 531.774 300.565 528.035 302.821 524.2C293.468 524.762 284.092 525.561 274.745 526.057C269.527 526.333 263.775 520.616 271.403 520.531C285.671 520.369 299.935 520.224 314.375 518.474C334.28 516.06 354.107 511.923 373.488 504.822C382.938 501.36 392.366 497.411 401.311 492.68C411.641 487.218 421.705 481.056 430.732 473.483C435.339 469.617 439.888 465.695 444.466 461.801C449.606 457.431 450.292 464.937 449.826 468.605C448.884 476.014 446.847 483.362 441.537 489.844C439.02 492.918 436.092 495.759 433.141 498.508C429.292 502.093 424.732 502.714 420.382 501.593C414.685 500.125 409.346 497.79 404.074 495.526C401.715 498.101 415.803 505.293 417.44 506.3Z" fill="#BD47DA"/>
<path d="M293.328 767.674C289.604 768.888 286.531 771.775 283.879 775.535C283.299 776.355 282.965 777.994 283.046 779.159C283.316 783.131 284.806 786.412 286.318 789.634C287.072 791.238 287.805 792.862 288.586 794.436C289.494 796.259 289.959 796.226 291.031 794.542C291.629 793.6 292.814 791.068 293.657 791.775C293.461 792.455 293.326 793.187 293.057 793.807C291.146 798.201 291.293 800.705 293.663 804.461C295.884 807.986 297.878 811.841 300.325 815.02C303.654 819.347 305.727 824.976 308.607 829.755C313.268 837.486 318.885 843.414 325.219 848.168C325.344 848.263 325.49 848.307 325.612 848.407C330.076 851.983 330.441 850.126 332.28 844.908C332.602 843.998 332.782 843.01 333.514 843.233C333.425 845.006 333.342 846.78 333.248 848.553C332.985 853.334 333.139 853.955 336.338 855.556C338.655 856.715 341.1 857.442 343.511 858.237C346.066 859.079 348.213 857.628 350.248 855.436C351.148 854.47 352.313 853.997 353.207 853.027C353.969 852.2 354.847 851.107 355.115 849.915C356.503 843.693 356.505 837.531 354.743 831.532C354.183 829.629 353.765 827.635 353.351 825.653C352.753 822.794 351.45 821.349 349.278 821.346C348.38 821.345 347.488 821.106 346.594 820.976C346.341 819.97 347.704 819.315 348.295 818.82C348.839 818.368 349.456 818.071 349.949 817.539C351.241 816.146 351.336 814.872 350.259 813.304C348.847 811.249 347.427 809.249 346.801 806.364C346.667 805.741 345.635 804.902 345.309 805.108C342.977 806.612 340.733 805.383 338.466 805.257C336.143 805.132 327.29 806.563 325.993 803.809C326.955 803.322 327.917 802.46 328.881 802.411C331.813 802.261 334.749 802.388 337.681 802.478C340.183 802.554 342.46 801.438 344.577 799.636C344.959 799.31 345.33 798.026 345.176 797.511C344.444 795.063 343.536 792.72 342.676 790.355C342.571 790.066 342.415 789.725 342.218 789.609C340.005 788.277 339.294 784.84 337.448 782.998C337.184 782.733 336.98 782.341 336.76 781.993C335.117 779.361 335.086 779.275 332.749 781.122C328.852 784.202 323.166 786.741 318.785 784.93C318.759 784.92 318.755 784.823 318.66 784.42C319.606 784.025 320.539 783.609 321.484 783.25C323.828 782.357 326.181 781.525 328.515 780.594C329.162 780.338 329.806 779.924 330.381 779.421C333.747 776.464 333.082 775.74 331.405 772.847C330.056 770.523 329.221 767.599 328.185 764.921C327.531 763.232 326.943 761.485 326.286 759.796C325.786 758.504 325.193 758.32 324.183 759.228C321.217 761.905 317.913 763.156 314.377 763.397C316.243 761.867 318.122 760.37 319.973 758.802C321.957 757.123 322.717 754.848 321.416 752.359C318.073 745.961 314.674 739.507 309.215 736.161C307.245 734.954 305.261 734.96 303.394 736.616C301.091 738.657 298.871 740.88 296.63 743.061C295.83 743.841 295.03 744.65 294.315 745.576C293.104 747.139 292.308 746.385 291.672 744.855C289.903 740.614 288.06 736.426 286.448 732.062C284.177 725.925 282.018 719.695 279.946 713.413C278.754 709.797 277.859 705.977 276.755 702.301C276.551 701.621 275.974 701.17 275.571 700.614C275.183 701.346 274.471 702.098 274.473 702.808C274.482 704.997 274.524 707.288 274.978 709.332C277.402 720.215 280.644 730.554 285.269 739.923C286.426 742.266 287.51 744.687 288.588 747.104C289.244 748.574 288.273 751.773 286.79 752.941C285.898 753.643 284.958 754.245 284.003 754.754C279.843 756.977 279.171 760.865 279.228 765.678C279.241 766.746 279.367 767.828 279.556 768.857C279.959 771.04 280.572 771.404 281.92 769.998C284.105 767.712 286.525 766.404 289.152 765.878C291.355 765.436 293.547 765.444 295.66 766.33C295.743 767.499 294.033 767.445 293.328 767.674Z" fill="#EE43D7"/>
<path d="M286.623 950.086C280.872 947.437 275.342 944.497 269.677 943.711C266.923 943.328 264.198 942.773 261.355 941.811C259.78 941.275 262.145 943.932 263.604 944.153C265.575 944.451 267.503 944.598 269.467 944.87C273.139 945.38 276.885 946.487 280.679 948.405C283.142 949.65 289.891 952.034 291.447 954.423C286.878 952.537 282.355 950.308 277.802 949.335C273.289 948.37 268.703 947.09 264.207 945.964C264.959 947.796 266.281 948.236 268.211 948.603C272.191 949.364 276.256 950.271 280.321 951.61C283.641 952.704 290.524 954.609 293.336 957.474C284.586 954.21 276.005 952.067 266.983 949.494C268.806 951.681 270.655 952.329 272.396 952.666C277.089 953.576 280.778 954.02 285.698 955.884C289.779 957.432 293.746 958.976 297.734 961.166C297.603 962.371 272.221 951.358 272.704 954.038C276.554 955.02 298.71 963.293 300.632 964.136C300.594 965.406 276.413 954.908 275.792 956.85C277.348 957.21 297.22 963.698 302.398 967.034C302.349 967.813 286.492 961.21 285.242 960.705C286.736 961.763 303.664 968.576 303.511 969.977C300.991 968.974 289.2 962.681 288.368 963.729C290.18 964.981 302.448 970.973 303.97 971.772C303.851 972.567 284.707 962.909 283.712 963.287C284.517 964.355 304.488 972.926 305.154 973.761C304.86 975.224 289.301 967.449 286.748 966.448C286.593 967.735 304.998 974.379 304.865 975.483C301.651 974.303 292.883 970.626 289.666 969.444C289.654 970.247 303.715 976.336 305.033 976.965C304.871 978.176 300.865 975.642 299.54 975.023C299.196 975.573 303.281 978.363 304.107 979.019C303.744 979.653 302.708 978.675 301.862 978.132C301.146 977.671 300.436 977.19 299.449 976.536C300.239 978.338 302.465 979.438 302.561 981.435C300.082 979.034 297.857 976.922 295.694 974.766C294.89 973.964 294.223 973.058 292.879 973.155C295.333 976.243 299.421 978.12 301.206 981.621C299.969 980.638 292.568 974.12 291.844 974.521C293.676 976.629 295.507 978.738 297.338 980.847C295.997 981.742 287.673 970.731 286.721 969.336C286.332 968.764 285.803 968.224 285.143 967.761C285.886 970.022 287.457 972.011 289.235 973.984C290.351 975.222 294.816 979.491 293.654 980.056C290.079 976.024 284.267 969.572 281.678 965.847C280.638 967.156 287.244 975.621 289.898 979.414C289.258 979.778 288.19 978.377 287.579 977.675C283.492 972.971 281.089 968.022 278.93 963.048C278.236 961.451 277.042 960.234 275.185 958.958C278.845 965.446 280.116 971.782 285.104 977.937C280.806 974.225 278.637 970.023 276.69 965.758C277.089 969.275 278.741 972.816 281.186 976.426C279.401 975.402 278.477 973.903 277.962 972.609C275.893 967.417 273.487 962.244 270.624 957.067C270.082 956.085 269.67 955.037 269.481 954.086C269.248 952.911 268.404 952.235 267.618 951.704C270.952 959.171 274.344 966.762 277.733 974.352C276.101 974.408 274.688 970.543 274.213 969.462C273.359 967.516 272.691 965.566 271.74 963.625C270.663 961.426 269.359 959.234 267.95 957.052C269.724 961.878 269.639 966.497 273.472 971.492C272.225 971.599 271.067 969.413 270.518 968.273C269.605 966.383 268.963 964.489 268.202 962.593C267.021 959.655 265.839 956.716 264.646 953.776C264.189 952.651 263.703 951.523 263.229 950.397C262.529 950.301 265.406 960.72 265.674 961.634C266.423 964.183 267.55 966.789 268.487 969.311C266.895 967.916 265.881 966.165 265.301 964.43C264.406 961.746 263.684 959.075 263.001 956.421C262.162 953.161 261.4 949.916 260.691 946.684C260.535 945.97 260.587 945.232 260.835 944.693C261.312 943.658 260.765 942.687 259.629 941.577C259.252 941.21 259.021 940.735 258.531 940.03C262.247 940.847 265.925 941.45 269.528 941.852C273.674 942.314 283.632 945.222 286.623 950.086ZM284.444 961.71C282.028 960.919 279.447 959.461 277.994 960.585C279.056 961.124 284.723 962.873 284.444 961.71ZM265.734 951.773C265.065 950.418 265.859 949.127 263.465 947.322C263.852 948.313 264.556 951.635 265.734 951.773ZM271.389 956.145C272.417 957.832 273.23 959.169 274.047 960.507C274.153 958.842 273.548 957.254 271.389 956.145Z" fill="#EF0BD1"/>
<path d="M264.584 931.065C260.132 929.6 255.842 929.837 251.238 926.662C251.551 928.674 252.974 929.238 255.311 929.932C257.931 930.711 260.498 931.041 263.091 931.564C265.6 932.071 267.926 933.504 270.226 935.278C267.371 934.383 264.518 933.486 261.664 932.595C258.788 931.698 255.914 930.808 252.952 929.886C253.101 930.598 253.508 931.257 254.681 931.584C256.751 932.162 258.824 932.772 260.902 933.403C264.496 934.494 268.088 935.551 271.69 936.759C273.337 937.312 274.914 939.483 276.016 940.709C274.735 940.369 267.951 938.028 267.977 938.973C272.241 940.126 276.46 941.646 280.538 944.604C280.3 944.55 277.599 943.368 277.38 943.25C271.804 940.223 269.086 941.279 263.754 939.97C262.52 939.667 258.43 937.756 258.099 939.085C257.691 940.724 257.574 942.529 257.034 944.086C255.395 948.8 256.53 954.395 258.294 960.179C258.832 961.936 260.616 963.804 260.98 965.51C252.876 957.931 253.49 946.053 256.327 940.405C257.135 938.796 257.08 938.244 255.166 936.095C252.975 939.323 251.786 943.077 251.748 947.574C251.71 952.14 254.321 956.915 256.465 961.693C256.326 961.7 256.187 961.706 256.047 961.709C255.671 961.15 255.262 960.598 254.922 960.033C253.035 956.887 250.942 953.791 250.309 950.557C249.139 944.588 249.441 939.463 253.63 936.33C254.439 935.723 255.226 935.028 253.659 933.427C245.655 938.012 246.328 946.718 250.508 957.099C248.939 956.773 247.98 953.837 247.642 952.58C246.092 946.846 245.019 941.242 246.43 936.461C247.094 934.222 249.018 933.192 251.38 932.659C255.288 931.776 250.407 930.51 247.714 932.113C244.41 934.08 243.987 937.838 244.364 941.91C244.523 943.623 247.4 952.266 245.841 952.615C244.577 948.452 243.104 944.091 242.809 940.144C242.611 937.505 243.131 935.081 243.52 932.654C243.751 931.22 244.535 930.199 246.334 930.027C247.996 929.867 249.486 929.394 251.191 929.028C250.377 924.564 242.598 930.47 241.777 932.035C239.532 936.316 241.668 942.622 242.857 948.216C239.321 947.728 239.737 933.545 239.971 932.256C240.317 930.347 241.361 928.696 242.565 927.319C244.477 925.136 250.2 927.831 249.631 924.851C251.151 925.553 252.524 926.208 253.898 926.815C255.031 927.315 259.542 929.637 259.554 928.656C251.321 923.749 248.286 923.614 243.01 925.623C240.344 926.943 238.085 928.127 237.631 930.903C237.446 932.046 238.028 941.912 236.964 941.605C236.247 937.865 235.853 934.235 235.945 930.741C236.069 925.933 238.918 923.512 244.17 923.326C244.875 923.302 250.003 923.019 249.053 921.947C251.106 924.437 253.807 925.265 256.364 926.321C260.285 927.946 260.582 927.887 264.584 931.065ZM270.832 937.526C268.812 936.936 254.753 932.288 254.876 933.357C256.838 934.355 271.035 938.863 270.832 937.526ZM266.155 938.356C262.782 937.365 259.411 936.372 256.035 935.378C255.746 935.928 257.478 937.163 258.219 937.321C259.274 937.545 266.328 939.067 266.155 938.356Z" fill="#EF0BD1"/>
<path d="M249.31 921.565C248.673 921.483 248.675 920.915 243.475 922.421C241.642 922.872 239.775 923.24 238.057 923.847C234.334 925.165 233.584 928.603 233.238 932.299C233.191 932.788 232.407 936.07 232.38 934.383C232.32 930.119 232.484 925.956 235.327 923.282C237.985 920.783 242.207 920.18 246.6 920.046C248.375 919.981 248.401 919.879 247.3 918.196C244.879 918.425 242.433 918.565 240.101 918.896C235.986 919.483 233.619 921.814 232.193 925.024C231.623 926.308 231.54 928.739 230.07 929.321C230.857 925.517 231.447 921.561 234.384 919.145C236.629 917.297 247.012 917.188 246.413 915.027C243.834 915.159 241.728 915.113 239.833 915.41C237.875 915.718 235.873 916.081 234.325 916.911C230.638 918.882 229.366 922.154 228.081 925.914C226.798 925.273 227.824 922.092 228.156 921.342C229.018 919.404 230.16 917.624 231.456 915.993C232.485 914.696 234.173 914.057 236.319 914.058C238.712 914.061 241.035 913.909 243.476 914.032C245.009 914.11 245.989 913.837 245.913 912.269C242.621 910.914 237.828 912.334 234.953 912.536C231.313 912.79 229.842 915.211 228.271 917.514C227.7 918.349 227.193 919.231 226.658 920.09C225.529 919.365 227.131 917.221 227.518 916.589C228.614 914.802 229.597 912.893 231.091 911.446C233.282 909.325 237.047 909.568 240.913 910.13C241.719 910.247 242.555 910.441 243.33 910.487C244.985 910.583 245.508 909.711 244.857 907.769C244.137 907.997 243.561 908.351 242.824 908.379C241.096 908.444 239.312 908.399 237.513 908.308C231.868 908.021 227.781 909.482 226.371 914.031C226.056 915.042 225.575 915.96 224.787 916.785C224.368 913.557 226.137 910.401 227.438 908.041C228.794 905.585 232.099 905.629 235.638 906.173C237.859 906.515 240.079 906.801 242.188 906.855C243.25 906.881 244.059 906.332 245.031 906.024C246.663 909.341 250.525 911.398 253.438 914.187C255.294 915.962 257.102 917.775 258.778 919.691C254.361 916.436 249.553 913.707 246.303 909.139C245.499 909.587 245.794 910.713 246.989 911.749C249.157 913.626 251.445 915.379 253.695 917.169C255.66 918.733 257.659 920.259 259.588 921.861C260.043 922.24 260.283 922.86 260.62 923.37C260.053 923.626 259.707 922.938 259.028 922.462C255.338 919.864 251.619 917.443 248.215 914.452C247.7 913.998 247.292 913.438 246.727 912.805C246.766 915.795 249.361 917.458 251.855 919.057C253.858 920.341 255.961 921.393 257.961 922.674C258.996 923.338 259.906 924.28 260.71 925.31C256.425 922.584 251.661 921.28 247.951 917.302C247.325 917.877 248.598 919.278 249.68 919.951C253.815 922.52 258.024 924.894 262.188 927.387C262.129 927.673 259.3 926.509 259.742 926.708C256.54 924.993 252.468 922.409 249.31 921.565Z" fill="#EF0BD1"/>
<path d="M242.193 869.835C242.218 873.899 242.112 877.918 242.278 882.031C242.37 884.259 243.417 886.565 245.975 888.676C247.962 890.315 249.277 892.204 249.861 894.271C246.522 890.974 242.836 887.848 241.259 883.686C238.047 884.787 236.548 887.371 232.593 888.023C228.776 888.653 224.894 889.197 221.891 890.976C221.001 891.504 220.21 892.141 219.374 892.729C218.58 892.045 219.901 891.056 220.352 890.715C223.374 888.419 227.065 886.95 231.391 886.265C234.988 885.699 237.68 884.021 239.833 881.855C240.678 881.005 240.757 879.409 240.873 878.017C241.101 875.223 241.104 872.331 241.224 869.489C241.238 869.129 241.381 868.822 241.464 868.491C242.176 868.777 242.19 869.245 242.193 869.835Z" fill="#EF0BD1"/>
<path d="M223.013 910.63C222.681 908.381 223.111 906.69 224.257 905.445C226.945 902.519 230.623 900.876 236.012 901.503C238.062 901.741 240.076 901.863 242.072 901.959C242.62 901.985 243.971 901.303 244.297 901.769C246.601 905.074 249.994 907.589 253.027 910.33C255.73 912.775 257.5 915.419 258.932 918.297C256.284 915.876 253.777 913.309 251.291 910.765C248.567 907.982 246.087 903.798 242.473 904.158C240.368 904.367 238.09 904.403 235.746 904.013C231.02 903.224 227.674 904.205 225.525 906.917C224.632 908.029 223.91 909.287 223.013 910.63Z" fill="#EF0BD1"/>
<path d="M223.442 900.595C225.999 898.333 229.747 897.715 234.064 897.987C236.456 898.138 238.879 898.369 241.225 898.415C242.037 898.43 242.651 897.994 243.246 897.801C245.577 900.076 247.807 902.274 250.06 904.449C252.287 906.6 254.287 908.215 255.689 910.669C253.191 908.685 251.057 907.162 249.158 905.429C247.595 904.003 246.258 902.351 244.922 900.756C244.092 899.764 243.386 899.493 242.415 899.568C239.726 899.774 237.102 900.178 234.248 899.994C228.236 899.605 223.93 901.111 221.92 905.469C221.387 906.63 222.427 901.493 223.442 900.595Z" fill="#EF0BD1"/>
<path d="M242.116 886.452C243.108 890.341 246.553 892.902 248.962 895.843C249.305 896.263 250.932 898.883 250.326 898.296C248.285 896.261 246.214 894.245 244.248 892.161C243.688 891.567 243.462 890.777 243.038 890.087C242.628 889.418 241.461 888.424 241.169 889.332C240.068 892.725 236.159 892.704 232.525 892.767C228.188 892.844 224.516 893.651 221.87 895.979C221.482 896.322 220.952 896.532 220.223 896.584C221.537 892.727 227.674 890.306 232.5 890.443C236.271 890.55 238.67 888.98 240.904 887.171C241.153 886.969 241.473 886.832 242.116 886.452Z" fill="#EF0BD1"/>
<path d="M219.486 900.297C220.743 899.225 221.892 898.045 223.276 897.102C226.504 894.9 230.682 894.124 235.511 894.21C237.569 894.247 239.312 893.532 241.097 893.013C241.697 892.838 241.978 892.218 242.522 891.689C244.551 894.032 245.677 896.288 248.205 898.536C249.651 899.819 251.196 901.093 251.439 902.869C249.185 899.878 245.056 898.191 243.52 894.424C242.361 894.774 241.421 895.204 240.316 895.36C238.156 895.666 236.014 896.084 233.667 895.969C229.79 895.781 226.611 896.524 223.968 898.122C223.137 898.625 220.641 901.293 219.486 900.297Z" fill="#EF0BD1"/>
<path d="M259.254 942.277C259.966 949.96 262.062 957.953 264.357 966.032C260.986 963.529 257.403 947.311 259.254 942.277Z" fill="#EF0BD1"/>
<path d="M190.286 753.685C191.788 760.287 193.624 766.739 193.289 772.763C193.128 775.692 193.143 778.636 193.54 781.808C193.763 783.566 191.586 780.439 191.653 778.883C191.746 776.781 191.979 774.762 192.095 772.674C192.311 768.769 191.948 764.631 190.788 760.231C190.034 757.374 188.992 749.817 186.922 747.59C187.898 752.779 189.224 758.009 189.295 762.941C189.366 767.829 189.736 772.875 189.971 777.787C188.296 776.534 188.119 775.06 188.134 772.982C188.161 768.695 188.059 764.281 187.528 759.756C187.094 756.058 186.554 748.49 184.259 744.848C185.782 754.692 186.224 764.067 187.006 774.009C185.189 771.561 184.909 769.492 184.916 767.615C184.936 762.557 185.221 758.652 184.335 753.11C183.599 748.512 182.845 744.032 181.452 739.361C180.228 739.179 186.183 768.14 183.612 766.939C183.394 762.727 179.528 737.8 179.068 735.605C177.797 735.31 183.478 762.901 181.423 763.028C181.371 761.335 178.832 739.223 176.533 733.029C175.749 732.874 179.193 750.894 179.45 752.311C178.692 750.498 175.249 731.324 173.825 731.112C174.326 733.964 178.263 747.726 177.057 748.305C176.169 746.115 172.624 731.942 172.129 730.169C171.315 730.082 177.152 752.28 176.58 753.203C175.676 752.095 171.084 729.333 170.384 728.429C168.871 728.347 173.54 746.368 174.033 749.254C172.722 749.074 169.738 728.428 168.614 728.274C169.155 731.884 171.085 741.855 171.628 745.469C170.827 745.271 167.539 729.23 167.173 727.711C165.937 727.559 167.667 732.339 168.022 733.862C167.407 734.071 165.437 729.142 164.947 728.122C164.245 728.328 165.014 729.65 165.387 730.66C165.704 731.517 166.044 732.372 166.499 733.558C164.863 732.274 164.207 729.698 162.239 729.074C164.139 732.251 165.802 735.091 167.52 737.879C168.16 738.916 168.93 739.839 168.569 741.194C165.98 737.862 164.918 733.171 161.787 730.417C162.521 731.945 167.547 741.26 167.006 741.897C165.269 739.462 163.532 737.027 161.795 734.592C160.641 735.734 169.954 747.177 171.155 748.522C171.647 749.072 172.08 749.757 172.411 750.557C170.308 749.199 168.638 747.063 167.026 744.718C166.014 743.246 162.647 737.539 161.857 738.583C165.163 743.315 170.437 750.98 173.632 754.618C172.125 755.341 165.005 746.332 161.755 742.609C161.266 743.17 162.45 744.636 163.028 745.447C166.902 750.881 171.352 754.651 175.875 758.176C177.327 759.309 178.303 760.855 179.206 763.097C173.473 757.632 167.421 754.661 162.28 747.92C165.126 753.31 168.879 756.642 172.738 759.763C169.318 758.428 166.121 755.801 163.012 752.341C163.678 754.443 164.988 755.786 166.174 756.656C170.931 760.145 175.603 763.976 180.189 768.278C181.059 769.093 182.021 769.791 182.93 770.236C184.052 770.783 184.559 771.829 184.932 772.775C178.161 767.387 171.277 761.908 164.394 756.432C164.017 758.093 167.583 760.561 168.565 761.332C170.333 762.722 172.141 763.92 173.885 765.407C175.86 767.091 177.784 769.007 179.677 771.028C175.226 767.937 170.614 766.809 166.399 761.56C166.048 762.812 167.994 764.576 169.02 765.439C170.721 766.874 172.479 768.032 174.214 769.312C176.905 771.298 179.596 773.283 182.285 775.283C183.314 776.047 184.341 776.843 185.368 777.626C185.325 778.37 175.527 772.675 174.671 772.16C172.283 770.72 169.912 768.877 167.587 767.253C168.662 769.254 170.204 770.755 171.815 771.808C174.31 773.432 176.824 774.876 179.33 776.276C182.407 777.994 185.486 779.631 188.562 781.208C189.241 781.557 189.986 781.697 190.571 781.584C191.694 781.367 192.553 782.183 193.433 783.642C193.724 784.126 194.151 784.487 194.756 785.177C194.674 781.146 194.8 777.21 195.11 773.405C195.466 769.026 194.536 758.036 190.286 753.685ZM178.293 752.866C178.603 755.554 179.546 758.588 178.142 759.785C177.814 758.552 177.191 752.273 178.293 752.866ZM184.492 774.691C185.709 775.735 187.149 775.259 188.474 778.192C187.564 777.534 184.398 775.938 184.492 774.691ZM181.257 767.735C179.782 766.236 178.611 765.049 177.441 763.859C179.118 764.187 180.579 765.226 181.257 767.735Z" fill="#FA8BEB"/>
<path d="M204.867 781.319C205.447 786.276 204.366 790.618 206.618 796.182C204.677 795.331 204.397 793.721 204.167 791.139C203.908 788.243 204.086 785.521 204.076 782.721C204.066 780.011 203.099 777.245 201.787 774.417C202.115 777.584 202.445 780.75 202.769 783.915C203.095 787.104 203.414 790.289 203.748 793.573C203.069 793.233 202.494 792.642 202.4 791.351C202.232 789.073 202.034 786.785 201.815 784.484C201.438 780.507 201.094 776.54 200.602 772.524C200.377 770.688 198.528 768.498 197.525 767.043C197.611 768.448 198.603 776.03 197.668 775.754C197.361 771.073 196.68 766.34 194.54 761.375C194.548 761.634 195.191 764.718 195.266 764.974C197.179 771.496 195.593 774.01 195.844 779.829C195.903 781.176 196.998 785.878 195.611 785.869C193.9 785.857 192.081 785.501 190.426 785.647C185.413 786.09 180.071 783.453 174.664 780.121C173.022 779.107 171.515 776.783 169.89 775.961C175.833 786.276 187.771 788.769 193.948 787.341C195.709 786.934 196.247 787.136 198.007 789.667C194.364 791.067 190.395 791.302 185.915 790.158C181.364 788.996 177.128 785.059 172.798 781.601C172.764 781.742 172.73 781.883 172.7 782.026C173.181 782.559 173.651 783.124 174.145 783.621C176.903 786.387 179.571 789.35 182.663 790.851C188.371 793.622 193.529 794.66 197.471 791.183C198.235 790.511 199.081 789.886 200.365 791.916C194.227 798.929 185.699 795.949 176.194 788.926C176.21 790.623 178.941 792.38 180.125 793.057C185.525 796.157 190.888 798.732 195.922 798.541C198.28 798.448 199.684 796.744 200.679 794.458C202.328 790.677 202.626 796.023 200.501 798.366C197.893 801.241 194.071 800.688 190.094 799.229C188.421 798.616 180.391 793.388 179.736 794.898C183.628 797.291 187.677 799.95 191.545 801.29C194.132 802.188 196.645 802.292 199.136 802.531C200.608 802.67 201.779 802.134 202.304 800.331C202.791 798.667 203.555 797.261 204.254 795.607C208.535 797.617 201.127 804.052 199.409 804.483C194.707 805.663 188.856 801.811 183.524 799.118C183.313 802.878 197.505 806.181 198.833 806.28C200.801 806.426 202.648 805.789 204.255 804.914C206.804 803.525 205.251 796.939 208.103 798.308C207.704 796.562 207.322 794.98 206.989 793.409C206.715 792.115 205.294 786.871 206.272 787.117C209.532 796.862 209.069 800.014 206.031 804.904C204.192 807.294 202.569 809.302 199.718 809.038C198.545 808.928 188.844 805.736 188.94 806.909C192.519 808.629 196.053 809.988 199.547 810.812C204.355 811.949 207.325 809.66 208.544 804.316C208.707 803.599 209.998 798.407 210.877 799.665C208.805 796.902 208.513 793.91 207.967 791.007C207.123 786.553 207.24 786.264 204.867 781.319ZM199.67 773.204C199.859 775.433 201.713 791.092 200.674 790.685C200.068 788.407 198.38 772.644 199.67 773.204ZM197.923 777.788C198.245 781.512 198.568 785.235 198.892 788.963C198.288 789.115 197.401 787.012 197.39 786.209C197.374 785.067 197.25 777.423 197.923 777.788Z" fill="#FA8BEB"/>
<path d="M211.309 799.501C211.265 800.177 211.831 800.325 209.308 805.268C208.498 807.031 207.764 808.853 206.821 810.456C204.777 813.933 201.209 813.799 197.464 813.182C196.968 813.102 193.549 813.044 195.221 813.516C199.452 814.698 203.625 815.624 206.846 813.408C209.855 811.336 211.287 807.159 212.286 802.683C212.7 800.878 212.807 800.878 214.264 802.451C213.559 804.877 212.939 807.352 212.149 809.66C210.755 813.731 207.97 815.549 204.495 816.169C203.105 816.416 200.671 815.862 199.802 817.219C203.742 817.411 207.794 817.846 210.775 815.465C213.056 813.646 215.21 803.012 217.242 804.196C216.602 806.809 216.233 808.984 215.564 810.851C214.872 812.781 214.117 814.742 212.987 816.113C210.299 819.381 206.794 819.826 202.8 820.157C203.184 821.643 206.551 821.426 207.363 821.282C209.461 820.907 211.456 820.202 213.335 819.301C214.827 818.584 215.796 817.02 216.217 814.816C216.686 812.358 217.295 810.012 217.654 807.473C217.878 805.879 218.342 804.943 219.887 805.435C220.587 809.171 218.23 813.719 217.463 816.619C216.493 820.289 213.795 821.163 211.194 822.171C210.251 822.538 209.274 822.826 208.313 823.15C208.813 824.5 211.261 823.419 211.966 823.188C213.959 822.532 216.053 822.025 217.786 820.871C220.328 819.179 220.828 815.249 221.031 811.131C221.073 810.273 221.044 809.363 221.152 808.556C221.381 806.831 222.352 806.523 224.156 807.702C223.787 808.382 223.321 808.88 223.148 809.629C222.744 811.387 222.437 813.231 222.173 815.101C221.347 820.974 219.088 824.786 214.285 825.038C213.217 825.096 212.209 825.348 211.233 825.941C214.361 827.219 217.85 826.233 220.453 825.518C223.164 824.771 223.772 821.365 223.927 817.588C224.025 815.218 224.178 812.863 224.54 810.684C224.723 809.586 225.428 808.9 225.926 807.982C222.948 805.434 221.662 800.927 219.461 797.203C218.061 794.83 216.614 792.496 215.038 790.271C217.406 795.664 219.174 801.318 223.078 805.857C222.474 806.565 221.412 805.966 220.616 804.466C219.177 801.747 217.883 798.935 216.546 796.154C215.377 793.725 214.253 791.271 213.039 788.869C212.751 788.302 212.182 787.893 211.741 787.413C211.375 787.928 211.991 788.464 212.331 789.286C214.188 793.758 215.864 798.215 218.169 802.496C218.519 803.145 218.996 803.711 219.514 804.458C216.548 803.631 215.404 800.529 214.305 797.548C213.422 795.154 212.79 792.716 211.909 790.326C211.452 789.089 210.695 787.907 209.828 786.81C211.696 791.927 212.055 797.163 215.282 802.018C214.586 802.51 213.443 800.833 212.987 799.546C211.246 794.624 209.714 789.677 208.054 784.746C207.757 784.732 208.358 787.943 208.247 787.436C209.323 791.176 211.091 796.036 211.309 799.501Z" fill="#FA8BEB"/>
<path d="M261.369 820.414C257.331 819.32 253.311 818.372 249.253 817.119C247.055 816.439 244.966 814.757 243.371 811.576C242.131 809.104 240.511 807.257 238.57 806.114C241.192 810.409 243.576 815.016 247.406 817.731C245.678 820.739 242.811 821.599 241.384 825.488C240.005 829.243 238.699 833.087 236.338 835.702C235.637 836.477 234.848 837.122 234.097 837.826C234.622 838.82 235.866 837.724 236.295 837.351C239.174 834.852 241.362 831.448 242.896 827.185C244.167 823.641 246.368 821.318 248.946 819.677C249.958 819.032 251.561 819.371 252.969 819.618C255.793 820.118 258.671 820.876 261.522 821.5C261.883 821.581 262.217 821.515 262.562 821.516C262.418 820.71 261.956 820.572 261.369 820.414Z" fill="#FA8BEB"/>
<path d="M217.006 829.381C219.179 830.314 220.945 830.316 222.41 829.467C225.85 827.477 228.209 824.132 228.647 818.433C228.814 816.265 229.09 814.165 229.387 812.09C229.47 811.521 230.414 810.313 230.014 809.856C227.18 806.62 225.347 802.474 223.217 798.639C221.318 795.221 219.036 792.708 216.455 790.48C218.342 793.836 220.402 797.085 222.443 800.308C224.675 803.836 228.349 807.484 227.279 811.1C226.656 813.207 226.171 815.536 226.097 818.046C225.952 823.107 224.316 826.284 221.196 827.778C219.913 828.402 218.519 828.813 217.006 829.381Z" fill="#FA8BEB"/>
<path d="M227.074 831.58C229.828 829.549 231.181 825.863 231.761 821.358C232.082 818.862 232.33 816.313 232.746 813.892C232.891 813.054 233.445 812.538 233.755 811.978C231.951 808.986 230.204 806.118 228.484 803.232C226.783 800.38 225.57 797.901 223.405 795.817C224.886 798.903 225.981 801.496 227.331 803.902C228.441 805.882 229.821 807.689 231.145 809.48C231.969 810.593 232.1 811.389 231.834 812.367C231.098 815.074 230.18 817.662 229.801 820.641C229.003 826.917 226.656 830.942 221.925 831.86C220.665 832.102 225.981 832.385 227.074 831.58Z" fill="#FA8BEB"/>
<path d="M244.823 816.123C241.149 814.081 239.28 809.871 236.828 806.624C236.479 806.161 234.193 803.801 234.657 804.578C236.28 807.209 237.877 809.866 239.563 812.432C240.044 813.164 240.785 813.603 241.388 814.22C241.973 814.817 242.731 816.277 241.771 816.338C238.179 816.576 237.429 820.596 236.651 824.311C235.72 828.744 234.194 832.303 231.356 834.408C230.938 834.716 230.625 835.205 230.43 835.939C234.526 835.605 238.144 829.94 238.958 824.948C239.594 821.047 241.629 818.997 243.868 817.179C244.119 816.977 244.318 816.683 244.823 816.123Z" fill="#FA8BEB"/>
<path d="M226.591 835.72C227.905 834.711 229.306 833.841 230.516 832.668C233.342 829.932 234.938 825.846 235.803 820.865C236.172 818.742 237.227 817.141 238.094 815.444C238.387 814.874 239.06 814.749 239.693 814.329C237.762 811.63 235.739 809.88 234 806.693C233.009 804.87 232.046 802.949 230.327 802.232C232.858 805.334 233.724 810.017 237.169 812.585C236.592 813.683 235.979 814.535 235.606 815.629C234.877 817.766 234.038 819.857 233.69 822.296C233.113 826.327 231.748 829.396 229.638 831.689C228.974 832.41 225.828 834.272 226.591 835.72Z" fill="#FA8BEB"/>
<path d="M192.662 783.844C185.16 781.092 177.621 776.837 170.036 772.355C171.862 776.475 187.29 784.42 192.662 783.844Z" fill="#FA8BEB"/>
<path d="M378.879 364.733C376 370.353 372.85 375.755 371.784 381.303C371.265 384.001 370.58 386.668 369.495 389.449C368.89 390.989 371.596 388.688 371.888 387.259C372.283 385.329 372.529 383.44 372.898 381.517C373.589 377.921 374.864 374.255 376.929 370.549C378.27 368.142 380.945 361.542 383.348 360.032C381.273 364.499 378.867 368.918 377.678 373.375C376.5 377.793 375.012 382.28 373.678 386.68C375.497 385.955 375.995 384.661 376.455 382.772C377.406 378.876 378.505 374.896 380.022 370.92C381.261 367.673 383.479 360.938 386.411 358.2C382.774 366.756 380.234 375.154 377.254 383.982C379.475 382.208 380.203 380.4 380.624 378.695C381.757 374.101 382.386 370.488 384.459 365.677C386.18 361.687 387.891 357.807 390.23 353.912C391.393 354.048 379.344 378.859 381.972 378.403C383.131 374.635 392.348 352.969 393.269 351.091C394.5 351.137 383.014 374.772 384.867 375.394C385.3 373.87 392.661 354.432 396.177 349.378C396.93 349.431 389.672 364.933 389.115 366.155C390.221 364.697 397.741 348.148 399.094 348.306C397.985 350.77 391.245 362.287 392.218 363.11C393.53 361.342 400.004 349.355 400.861 347.868C401.626 347.989 391.226 366.693 391.539 367.671C392.62 366.889 402.008 347.368 402.855 346.72C404.259 347.018 395.879 362.219 394.771 364.716C396.012 364.876 403.446 346.877 404.511 347.014C403.193 350.157 399.155 358.729 397.836 361.874C398.614 361.892 405.278 348.147 405.959 346.859C407.126 347.026 404.452 350.936 403.78 352.231C404.296 352.572 407.222 348.585 407.903 347.78C408.5 348.14 407.495 349.15 406.923 349.975C406.437 350.674 405.931 351.366 405.244 352.33C407.035 351.568 408.222 349.392 410.166 349.311C407.703 351.726 405.533 353.893 403.325 355.999C402.503 356.783 401.587 357.431 401.61 358.749C404.739 356.363 406.78 352.368 410.274 350.64C409.254 351.846 402.53 359.06 402.881 359.772C405.026 357.99 407.171 356.208 409.316 354.427C410.113 355.747 398.978 363.836 397.573 364.761C396.997 365.138 396.444 365.654 395.96 366.297C398.194 365.584 400.21 364.056 402.22 362.326C403.481 361.24 407.865 356.891 408.351 358.033C404.246 361.512 397.671 367.168 393.916 369.682C395.131 370.709 403.703 364.289 407.527 361.711C407.846 362.341 406.429 363.379 405.715 363.973C400.93 367.949 395.996 370.273 391.052 372.357C389.465 373.028 388.219 374.19 386.881 376.002C393.375 372.456 399.594 371.251 405.837 366.401C402.003 370.59 397.808 372.689 393.563 374.57C396.999 374.202 400.525 372.605 404.16 370.231C403.07 371.975 401.566 372.871 400.282 373.368C395.131 375.362 389.98 377.688 384.801 380.461C383.818 380.986 382.779 381.383 381.846 381.562C380.693 381.783 379.991 382.606 379.434 383.373C386.861 380.152 394.413 376.876 401.962 373.603C401.929 375.203 398.101 376.564 397.026 377.022C395.091 377.847 393.163 378.489 391.228 379.409C389.035 380.451 386.837 381.715 384.643 383.082C389.423 381.374 393.904 381.487 398.958 377.762C398.995 378.985 396.811 380.106 395.675 380.637C393.791 381.519 391.917 382.137 390.037 382.871C387.121 384.01 384.204 385.149 381.286 386.3C380.17 386.74 379.049 387.21 377.93 387.667C377.8 388.353 388.068 385.599 388.97 385.342C391.485 384.624 394.075 383.536 396.574 382.635C395.134 384.186 393.38 385.168 391.665 385.726C389.011 386.586 386.38 387.276 383.766 387.929C380.557 388.731 377.365 389.457 374.19 390.131C373.488 390.28 372.774 390.224 372.264 389.977C371.285 389.503 370.313 390.032 369.175 391.139C368.799 391.506 368.325 391.729 367.614 392.206C368.607 388.568 369.388 384.966 369.971 381.438C370.642 377.377 373.997 367.634 378.879 364.733ZM390.047 366.944C389.151 369.307 387.597 371.827 388.61 373.259C389.191 372.222 391.191 366.677 390.047 366.944ZM379.4 385.22C378.048 385.868 376.838 385.081 374.957 387.416C375.94 387.043 379.203 386.374 379.4 385.22ZM383.946 379.705C385.639 378.708 386.981 377.92 388.324 377.128C386.713 377.013 385.139 377.596 383.946 379.705Z" fill="#F54A80"/>
<path d="M359.235 386.215C357.574 390.57 357.575 394.776 354.246 399.269C356.216 398.975 356.84 397.584 357.639 395.297C358.535 392.734 358.993 390.22 359.639 387.682C360.265 385.225 361.781 382.954 363.626 380.711C362.605 383.504 361.581 386.295 360.564 389.087C359.539 391.901 358.522 394.712 357.468 397.61C358.167 397.468 358.828 397.073 359.209 395.925C359.881 393.9 360.583 391.872 361.308 389.839C362.559 386.323 363.777 382.809 365.142 379.286C365.767 377.675 367.959 376.143 369.209 375.07C368.81 376.324 366.175 382.959 367.094 382.939C368.44 378.767 370.142 374.641 373.232 370.663C373.166 370.896 371.875 373.536 371.748 373.75C368.511 379.196 369.391 381.867 367.835 387.086C367.475 388.293 365.401 392.29 366.674 392.623C368.243 393.034 369.989 393.159 371.472 393.699C375.961 395.336 381.453 394.259 387.163 392.567C388.897 392.052 390.806 390.315 392.482 389.969C384.691 397.864 373.191 397.186 367.861 394.369C366.341 393.566 365.803 393.616 363.614 395.479C366.631 397.647 370.212 398.837 374.575 398.903C379.006 398.97 383.782 396.441 388.535 394.37C388.534 394.506 388.533 394.642 388.528 394.78C387.965 395.145 387.407 395.542 386.841 395.871C383.686 397.701 380.568 399.733 377.395 400.333C371.537 401.441 366.577 401.112 363.76 396.986C363.214 396.189 362.581 395.413 360.943 396.939C364.966 404.815 373.454 404.211 383.756 400.18C383.356 401.716 380.455 402.637 379.216 402.96C373.566 404.442 368.068 405.458 363.502 404.044C361.364 403.38 360.467 401.487 360.076 399.168C359.428 395.332 357.937 400.109 359.35 402.758C361.082 406.009 364.708 406.448 368.682 406.105C370.353 405.961 378.897 403.195 379.154 404.726C375.044 405.939 370.731 407.354 366.884 407.618C364.311 407.795 361.986 407.27 359.651 406.873C358.271 406.637 357.321 405.862 357.251 404.097C357.184 402.467 356.805 401.003 356.541 399.33C352.164 400.1 357.481 407.763 358.956 408.577C362.993 410.806 369.228 408.752 374.723 407.622C374.061 411.086 360.313 410.587 359.074 410.349C357.239 409.998 355.693 408.964 354.42 407.775C352.403 405.887 355.325 400.293 352.402 400.833C353.165 399.347 353.874 398.006 354.537 396.662C355.083 395.555 357.578 391.148 356.627 391.13C351.423 399.169 351.129 402.143 352.797 407.328C353.936 409.949 354.965 412.171 357.636 412.634C358.735 412.823 368.345 412.316 367.989 413.357C364.321 414.036 360.775 414.399 357.388 414.286C352.727 414.134 350.529 411.325 350.63 406.176C350.643 405.484 350.644 400.456 349.552 401.381C352.079 399.384 353.028 396.741 354.189 394.242C355.976 390.408 355.935 390.117 359.235 386.215ZM365.841 380.132C365.161 382.108 359.896 395.859 360.94 395.746C362.014 393.828 367.15 379.941 365.841 380.132ZM366.396 384.721C365.254 388.021 364.11 391.32 362.965 394.623C363.483 394.909 364.774 393.22 364.967 392.494C365.242 391.461 367.096 384.556 366.396 384.721Z" fill="#F54A80"/>
<path d="M349.195 401.126C349.081 401.75 348.529 401.744 349.713 406.851C350.053 408.651 350.311 410.484 350.808 412.171C351.889 415.83 355.186 416.586 358.756 416.95C359.228 416.998 362.372 417.788 360.733 417.804C356.59 417.835 352.558 417.648 350.114 414.844C347.83 412.222 347.47 408.08 347.575 403.772C347.607 402.032 347.509 402.006 345.817 403.074C345.91 405.449 345.914 407.848 346.111 410.136C346.461 414.174 348.597 416.509 351.637 417.927C352.854 418.495 355.209 418.591 355.696 420.036C352.044 419.24 348.235 418.636 346.047 415.742C344.373 413.529 344.823 403.35 342.692 403.924C342.683 406.453 342.526 408.517 342.713 410.376C342.907 412.298 343.152 414.263 343.875 415.785C345.591 419.412 348.7 420.68 352.281 421.963C351.591 423.217 348.557 422.192 347.847 421.861C346.011 421.003 344.345 419.873 342.83 418.592C341.627 417.574 341.096 415.916 341.212 413.813C341.343 411.467 341.319 409.188 341.569 406.796C341.727 405.295 341.515 404.331 339.988 404.397C338.496 407.615 339.619 412.322 339.661 415.142C339.713 418.711 341.985 420.168 344.137 421.724C344.916 422.288 345.745 422.791 346.551 423.321C345.787 424.423 343.791 422.84 343.198 422.456C341.522 421.37 339.721 420.394 338.396 418.92C336.455 416.759 336.891 413.069 337.644 409.283C337.8 408.495 338.034 407.676 338.119 406.917C338.302 405.295 337.483 404.777 335.563 405.402C335.746 406.11 336.059 406.677 336.047 407.399C336.017 409.094 335.878 410.842 335.694 412.605C335.112 418.137 336.313 422.152 340.653 423.564C341.618 423.879 342.484 424.356 343.242 425.134C340.086 425.524 337.117 423.77 334.896 422.48C332.584 421.134 332.803 417.894 333.521 414.429C333.972 412.254 334.367 410.08 334.533 408.013C334.614 406.972 334.125 406.176 333.878 405.22C337.185 403.642 339.389 399.869 342.253 397.032C344.076 395.224 345.932 393.463 347.881 391.832C344.485 396.142 341.579 400.837 336.97 403.994C337.362 404.785 338.471 404.503 339.541 403.338C341.479 401.225 343.303 398.993 345.161 396.799C346.784 394.883 348.373 392.933 350.032 391.052C350.424 390.609 351.039 390.378 351.552 390.051C351.77 390.608 351.084 390.943 350.585 391.605C347.866 395.206 345.316 398.836 342.23 402.154C341.763 402.656 341.197 403.052 340.552 403.602C343.457 403.583 345.21 401.05 346.896 398.615C348.249 396.66 349.383 394.605 350.734 392.653C351.434 391.643 352.398 390.757 353.44 389.975C350.565 394.158 349.043 398.82 344.983 402.431C345.508 403.048 346.937 401.809 347.648 400.753C350.363 396.716 352.892 392.605 355.536 388.539C355.81 388.6 354.529 391.365 354.746 390.933C352.909 394.061 350.183 398.035 349.195 401.126Z" fill="#F54A80"/>
<path d="M298.593 407.77C302.54 407.772 306.436 407.901 310.437 407.765C312.605 407.69 314.901 406.678 317.086 404.184C318.784 402.247 320.688 400.97 322.726 400.411C319.347 403.662 316.114 407.255 311.99 408.775C312.887 411.93 315.316 413.416 315.737 417.297C316.145 421.043 316.464 424.852 318.031 427.807C318.497 428.683 319.072 429.462 319.599 430.286C318.892 431.059 318.003 429.758 317.695 429.314C315.628 426.337 314.399 422.709 313.966 418.464C313.609 414.935 312.123 412.285 310.136 410.161C309.356 409.327 307.811 409.239 306.466 409.117C303.766 408.875 300.958 408.854 298.205 408.718C297.856 408.702 297.566 408.56 297.249 408.476C297.565 407.78 298.02 407.769 298.593 407.77Z" fill="#F54A80"/>
<path d="M337.173 426.834C334.971 427.145 333.352 426.712 332.205 425.581C329.508 422.927 328.109 419.311 329.007 414.032C329.347 412.024 329.573 410.051 329.774 408.095C329.828 407.559 329.238 406.23 329.708 405.913C333.04 403.676 335.662 400.365 338.487 397.41C341.004 394.776 343.666 393.058 346.536 391.673C344.045 394.253 341.419 396.694 338.815 399.115C335.968 401.767 331.773 404.172 331.93 407.716C332.02 409.781 331.933 412.014 331.43 414.309C330.41 418.937 331.184 422.223 333.701 424.347C334.734 425.23 335.916 425.946 337.173 426.834Z" fill="#F54A80"/>
<path d="M327.453 426.349C325.394 423.828 324.994 420.15 325.489 415.92C325.763 413.576 326.117 411.202 326.288 408.903C326.346 408.106 325.955 407.502 325.8 406.917C328.133 404.647 330.386 402.475 332.618 400.281C334.825 398.112 336.5 396.161 338.957 394.803C336.898 397.238 335.305 399.321 333.521 401.172C332.053 402.695 330.378 403.995 328.758 405.294C327.751 406.101 327.449 406.791 327.47 407.744C327.527 410.381 327.779 412.956 327.447 415.752C326.748 421.643 327.98 425.873 332.104 427.872C333.202 428.401 328.27 427.349 327.453 426.349Z" fill="#F54A80"/>
<path d="M314.721 407.952C318.55 407.005 321.22 403.645 324.205 401.302C324.63 400.968 327.261 399.39 326.659 399.981C324.574 401.968 322.506 403.985 320.377 405.899C319.771 406.444 318.992 406.66 318.3 407.072C317.628 407.469 316.601 408.607 317.467 408.9C320.701 410 320.472 413.832 320.339 417.395C320.182 421.646 320.769 425.251 322.888 427.86C323.2 428.243 323.375 428.764 323.387 429.478C319.712 428.166 317.69 422.134 318.082 417.404C318.387 413.708 316.991 411.346 315.355 409.145C315.171 408.9 315.056 408.585 314.721 407.952Z" fill="#F54A80"/>
<path d="M326.952 430.225C325.979 428.986 324.894 427.851 324.053 426.488C322.088 423.31 321.558 419.21 321.9 414.476C322.046 412.46 321.444 410.746 321.036 408.994C320.899 408.405 320.311 408.125 319.827 407.588C322.21 405.615 324.46 404.525 326.779 402.061C328.101 400.652 329.421 399.146 331.158 398.919C328.134 401.11 326.275 405.146 322.535 406.628C322.813 407.765 323.181 408.69 323.273 409.774C323.454 411.893 323.746 413.996 323.509 416.296C323.119 420.095 323.67 423.216 325.08 425.817C325.524 426.635 327.981 429.099 326.952 430.225Z" fill="#F54A80"/>
<path d="M369.834 391.512C377.331 390.863 385.203 388.86 393.169 386.662C390.56 389.95 374.622 393.359 369.834 391.512Z" fill="#F54A80"/>
<path fill-rule="evenodd" clip-rule="evenodd" d="M159.938 686.21C160.674 686.083 162.85 685.24 164.773 684.337C168.655 682.514 171.057 681.985 176.944 681.658C187.058 681.096 198.179 678.382 203.142 675.265C204.943 674.134 210.02 669.988 213.185 667.064C217.261 663.298 218.522 662.38 225.796 657.881C229.076 655.853 232.754 653.338 233.97 652.291C240.203 646.926 241.703 645.564 243.667 643.488C244.842 642.246 246.619 640.023 247.616 638.549C249.131 636.307 249.536 635.414 250.081 633.108C250.939 629.478 250.773 626.037 249.569 622.53C248.234 618.644 247.896 618.018 246.144 616.201C245.31 615.335 243.714 615.284 243.706 615.119C243.697 614.955 245.648 613.386 246.933 612.6C250.224 610.588 252.186 609.086 257.329 604.64C263.675 599.153 266.989 595.561 267.247 593.888C267.416 592.792 266.044 593.074 264.775 594.396C264.167 595.029 262.64 596.792 261.382 598.313C258.69 601.57 255.777 604.45 253.08 606.521C252.012 607.34 250.322 608.659 249.324 609.45C245.856 612.2 243.427 613.874 243.049 613.78C242.839 613.728 244.542 610.919 245.127 608.71C246.397 603.922 246.367 601.996 244.994 600.304C243.661 598.66 241.971 598.051 237.684 597.669C230.542 597.032 221.405 599.039 214.942 602.665C202.495 609.648 193.75 616.281 180.672 628.655C170.554 638.229 164.282 646.379 160.611 654.724C156.977 662.984 155.678 679.071 158.143 685.287C158.584 686.4 158.648 686.433 159.938 686.21ZM163.793 668.543C162.896 666.581 164.604 664.927 167.89 664.578C170.44 664.306 173.969 665.18 174.652 666.253C175.166 667.059 174.266 668.207 172.078 669.539C170.103 670.741 168.457 671.217 167.1 670.976C165.856 670.755 164.272 669.59 163.793 668.543ZM180.3 676.464C180.314 676.086 180.791 674.68 181.359 673.34C181.928 672.001 182.775 669.315 183.242 667.372C183.942 664.463 184.269 663.662 185.094 662.833C186.371 661.549 187.445 661.271 188.408 661.975C189.98 663.124 188.888 666.588 185.002 672.784C183.007 675.966 182.478 676.64 181.68 677.026C180.583 677.555 180.264 677.425 180.3 676.464ZM162.14 657.064C163.312 655.46 168.887 653.619 172.395 653.676C174.732 653.715 179.305 654.815 180.373 655.596C181.573 656.474 182.378 658.307 181.99 659.281C181.51 660.486 178.812 661.677 176.395 661.749C174.034 661.82 172.01 661.224 168.436 659.406C166.856 658.602 165.322 658.089 164.657 658.141C162.605 658.303 161.56 657.856 162.14 657.064ZM194.837 672.126C195.257 670.209 195.716 667.298 195.858 665.657C196.275 660.804 197.183 659.676 199.699 660.889C202.321 662.152 202.235 663.435 199.05 670.553C197.084 674.946 196.401 675.995 195.322 676.278C194.105 676.598 194.019 675.86 194.837 672.126ZM179.767 648.621C179.368 647.207 182.381 646.902 186.624 647.928C189.262 648.566 190.208 649.447 189.416 650.529C188.428 651.879 185.919 652.146 183.531 651.154C181.085 650.138 179.986 649.398 179.767 648.621ZM176.026 637.274C175.961 636.596 177.711 635.687 179.596 635.42C184.601 634.711 192.118 635.371 196.418 636.897C200.027 638.178 202.021 641.123 200.598 643.069C199.523 644.539 197.695 645.497 195.696 645.639C192.601 645.858 191.723 645.578 182.23 641.338C180.28 640.466 178.345 639.587 177.931 639.384C177.021 638.937 176.086 637.902 176.026 637.274ZM209.959 658.207C209.137 655.31 209.357 652.003 210.758 646.177C211.847 641.647 213.077 640.616 215.416 642.272C216.658 643.151 216.662 643.17 216.259 646.129C215.728 650.021 214.559 654.44 213.286 657.366C211.666 661.089 210.835 661.299 209.959 658.207ZM222.911 648.826C223.024 640.29 223.959 635.176 225.892 632.533C227.345 630.547 228.181 630.478 230.377 632.161C232.564 633.838 232.869 635.402 231.779 639.355C230.426 644.266 229.495 646.197 226.82 649.635C224.458 652.673 223.613 653.275 223.081 652.299C222.965 652.085 222.888 650.522 222.911 648.826ZM198.582 631.693C197.462 629.322 198.094 628.318 200.835 628.114C203.455 627.919 206.819 628.681 210.304 630.259C215.467 632.597 215.514 633.592 210.515 634.751C206.801 635.612 205.103 635.615 202.475 634.769C200.087 633.999 199.423 633.475 198.582 631.693ZM196.537 618.529C196.439 616.618 199.973 615.05 203.585 615.401C204.774 615.517 207.461 615.517 209.556 615.402C218.288 614.92 224.61 616.946 225.289 620.444C225.478 621.418 225.328 621.834 224.275 623.254C223.201 624.702 222.805 624.987 221.255 625.425C220.274 625.703 219.03 625.904 218.491 625.872C216.62 625.762 212.998 624.672 208.601 622.896C206.148 621.906 202.796 620.886 201.072 620.606C197.752 620.067 196.589 619.534 196.537 618.529ZM239.625 633.723C238.935 631.982 238.491 628.278 238.652 625.6C238.903 621.413 241.013 620.167 243.689 622.623C245.31 624.111 245.866 625.762 245.549 628.154C245.294 630.085 243.813 633.758 242.646 635.353C242.04 636.182 241.889 636.203 241.031 635.575C240.511 635.195 239.878 634.362 239.625 633.723ZM216.903 605.162C216.986 602.975 231.341 605.369 235.508 608.266C240.353 611.634 236.443 615.348 230.651 612.88C220.25 608.447 216.851 606.539 216.903 605.162Z" fill="#BE53B0"/>
<path fill-rule="evenodd" clip-rule="evenodd" d="M375.415 154.449C374.757 154.768 372.919 156.161 371.331 157.543C368.127 160.334 366.004 161.487 360.573 163.384C351.243 166.645 341.476 172.236 337.563 176.557C336.144 178.124 332.367 183.461 330.092 187.113C327.161 191.816 326.197 193.035 320.447 199.3C317.855 202.124 315.003 205.523 314.111 206.853C309.539 213.668 308.455 215.375 307.104 217.892C306.296 219.398 305.155 222.005 304.568 223.685C303.677 226.239 303.508 227.203 303.538 229.559C303.587 233.266 304.55 236.516 306.499 239.55C308.659 242.912 309.122 243.42 311.187 244.689C312.171 245.294 313.676 244.914 313.722 245.069C313.769 245.224 312.312 247.251 311.294 248.35C308.687 251.162 307.204 253.128 303.435 258.77C298.785 265.732 296.527 270.063 296.678 271.735C296.777 272.83 297.995 272.191 298.872 270.584C299.292 269.814 300.307 267.715 301.127 265.919C302.882 262.076 304.932 258.534 306.969 255.825C307.776 254.753 309.048 253.036 309.796 252.009C312.396 248.443 314.275 246.186 314.651 246.174C314.86 246.167 313.926 249.316 313.896 251.588C313.831 256.516 314.311 258.352 315.992 259.602C317.625 260.818 319.349 260.946 323.449 260.159C330.28 258.847 338.357 254.465 343.553 249.254C353.56 239.217 360.185 230.512 369.518 215.143C376.738 203.252 380.694 193.759 382.171 184.78C383.633 175.893 381.076 160.138 377.312 154.85C376.638 153.903 376.57 153.888 375.415 154.449ZM375.952 172.403C377.252 174.042 376.042 176.085 373.05 177.304C370.728 178.25 367.222 178.362 366.331 177.52C365.661 176.886 366.234 175.544 367.968 173.679C369.534 171.997 370.963 171.099 372.288 170.964C373.504 170.84 375.259 171.53 375.952 172.403ZM358.652 169.262C358.727 169.627 358.611 171.102 358.393 172.537C358.176 173.973 358.013 176.773 358.032 178.759C358.059 181.734 357.942 182.589 357.364 183.605C356.471 185.178 355.531 185.733 354.465 185.318C352.725 184.64 352.934 181.029 355.116 174.05C356.237 170.467 356.573 169.678 357.23 169.094C358.132 168.292 358.46 168.331 358.652 169.262ZM380.192 182.951C379.472 184.802 374.687 188.066 371.393 188.955C369.197 189.547 364.661 189.724 363.479 189.264C362.15 188.746 360.967 187.207 361.101 186.17C361.267 184.887 363.512 183.021 365.756 182.301C367.949 181.597 369.982 181.623 373.752 182.403C375.419 182.748 376.975 182.826 377.585 182.597C379.466 181.89 380.549 182.037 380.192 182.951ZM346.069 177.328C346.126 179.276 346.379 182.187 346.632 183.797C347.38 188.557 346.795 189.881 344.157 189.397C341.408 188.892 341.187 187.641 342.497 179.968C343.306 175.232 343.699 174.043 344.642 173.482C345.705 172.848 345.959 173.531 346.069 177.328ZM365.681 195.78C366.386 197.027 363.639 198.129 359.429 198.289C356.811 198.388 355.72 197.799 356.207 196.55C356.814 194.991 359.099 194.06 361.566 194.368C364.092 194.682 365.294 195.095 365.681 195.78ZM371.842 205.639C372.062 206.271 370.639 207.612 368.938 208.375C364.422 210.401 357.235 211.792 352.854 211.489C349.177 211.233 346.62 208.949 347.495 206.703C348.156 205.006 349.641 203.596 351.478 202.922C354.323 201.88 355.21 201.912 365.086 203.417C367.115 203.727 369.13 204.048 369.565 204.131C370.522 204.314 371.639 205.054 371.842 205.639ZM335.188 194.726C336.635 197.279 337.206 200.505 337.261 206.461C337.305 211.092 336.396 212.41 333.82 211.454C332.451 210.946 332.443 210.929 332.127 207.988C331.71 204.117 331.767 199.571 332.272 196.427C332.914 192.425 333.642 192 335.188 194.726ZM325.271 207.195C327.167 215.399 327.491 220.548 326.303 223.599C325.41 225.892 324.644 226.184 322.195 225.162C319.755 224.145 319.103 222.73 319.195 218.651C319.31 213.584 319.728 211.485 321.423 207.472C322.921 203.928 323.57 203.123 324.296 203.915C324.455 204.089 324.894 205.565 325.271 207.195ZM352.05 217.053C353.654 219.023 353.298 220.154 350.781 221.087C348.376 221.979 345.05 222.155 341.42 221.582C336.041 220.732 335.764 219.792 340.168 217.337C343.442 215.513 345.029 215.053 347.687 215.156C350.101 215.25 350.845 215.574 352.05 217.053ZM357.051 229.109C357.591 230.913 354.652 233.366 351.191 234.001C350.051 234.21 347.538 234.933 345.605 235.608C337.548 238.419 331.159 238.18 329.703 235.013C329.298 234.131 329.341 233.692 329.993 232.05C330.658 230.374 330.961 229.995 332.308 229.158C333.161 228.627 334.277 228.1 334.789 227.986C336.566 227.588 340.21 227.657 344.74 228.174C347.267 228.462 350.642 228.536 352.321 228.341C355.553 227.964 356.767 228.161 357.051 229.109ZM313.176 226.155C314.231 227.637 315.515 231.065 315.992 233.672C316.739 237.749 315.058 239.511 311.978 237.878C310.112 236.89 309.205 235.458 308.94 233.083C308.726 231.165 309.25 227.249 309.968 225.408C310.34 224.451 310.477 224.39 311.426 224.76C312.002 224.984 312.79 225.612 313.176 226.155ZM341.133 247.39C341.569 249.507 327.578 251.078 323 249.425C317.677 247.504 320.463 242.895 326.461 243.7C337.231 245.145 340.858 246.058 341.133 247.39Z" fill="#E48EF9"/>
<path d="M154.752 166.189C144.965 169.306 163.062 186.753 167.096 188.913C171.567 191.31 179.065 185.909 183.017 184.239C180.229 187.244 177.332 190.154 174.916 193.478C172.078 197.394 179.619 200.914 182.136 202.459C186.439 205.099 189.38 194.738 193.161 193.59C191.342 196.826 189.297 200.053 188.107 203.6C187.302 206.011 187.95 208.251 190.22 209.38C193.322 210.923 196.634 212.079 199.932 213.156C207.064 215.49 206.671 203.14 211.34 201.674C210.42 205.563 209.28 209.479 209.86 213.546C211.26 223.296 232.496 224.887 240.622 223.232C244.648 222.41 247.173 219.52 247.072 215.315C246.983 211.523 245.902 207.772 245.267 204.034C252.949 206.35 260.572 208.875 268.271 211.132C272.569 212.392 279.29 208.607 272.902 207.039C260.955 204.103 249.004 201.183 237.435 196.85C221.487 190.874 206.172 183.434 192.208 173.534C185.401 168.707 178.771 163.466 172.805 157.648C165.915 150.93 159.479 143.664 154.381 135.387C151.779 131.163 149.244 126.901 146.676 122.658C143.792 117.895 140.743 124.211 139.927 127.454C138.279 134.004 137.572 140.717 139.903 147.327C141.008 150.462 142.536 153.476 144.112 156.417C146.169 160.252 149.8 161.679 153.828 161.568C159.104 161.424 164.363 160.464 169.543 159.552C170.68 162.227 156.461 165.645 154.752 166.189Z" fill="#FF62EA"/>
<path d="M56.9275 820.546C53.1073 810.222 83.1146 815.792 88.0943 818.041C93.6165 820.531 93.5654 830.197 94.7002 834.606C95.7059 830.431 96.54 826.217 98.1212 822.18C99.9913 817.432 108.789 821.938 112.091 823.226C117.735 825.429 109.566 834.021 111.097 837.978C113.014 834.511 114.762 830.853 117.429 827.753C119.245 825.649 121.916 824.907 124.632 826.223C128.345 828.021 131.824 830.227 135.214 832.467C142.55 837.308 130.065 844.16 131.908 849.073C135.104 846.008 138.17 842.736 142.6 840.871C153.226 836.408 169.772 853.945 173.867 861.974C175.893 865.953 174.816 869.832 170.589 872.193C166.777 874.325 162.306 875.57 158.164 877.196C165.871 882.525 173.741 887.682 181.401 893.06C185.678 896.064 186.676 904.111 180.621 899.471C169.295 890.794 157.981 882.105 145.539 874.571C128.386 864.186 110.232 855.206 90.5995 848.832C81.0277 845.725 71.1714 843.014 61.2137 841.217C49.7144 839.14 37.993 837.777 26.2159 838.166C20.2061 838.365 14.2055 838.643 8.20025 838.882C1.4586 839.149 5.55143 832.819 8.18168 830.221C13.4953 824.973 19.6332 820.447 27.8105 818.624C31.6891 817.758 35.7456 817.33 39.764 816.988C45.005 816.542 48.9761 818.868 51.7073 822.434C55.2846 827.105 58.0451 832.237 60.7959 837.272C64.2412 836.702 57.5942 822.349 56.9275 820.546Z" fill="#CC3AB8"/>
<path d="M253.791 381.686C256.056 384.831 256.823 388.933 256.745 393.487C256.729 394.48 256.038 395.986 255.293 396.87C252.756 399.886 249.649 401.638 246.559 403.329C245.019 404.172 243.485 405.042 241.941 405.843C240.151 406.77 239.799 406.471 239.927 404.5C239.999 403.398 240.533 400.682 239.446 400.755C239.205 401.413 238.885 402.077 238.738 402.729C237.697 407.357 236.116 409.272 232.029 410.89C228.195 412.409 224.351 414.326 220.538 415.437C215.351 416.952 210.407 420.239 205.314 422.377C197.074 425.833 189.124 427.29 181.287 427.39C181.131 427.393 180.99 427.343 180.834 427.351C175.179 427.603 175.972 425.905 177.552 420.661C177.827 419.746 178.26 418.851 177.546 418.602C176.58 420.071 175.61 421.537 174.649 423.009C172.065 426.983 171.58 427.389 168.09 426.801C165.562 426.374 163.184 425.527 160.794 424.754C158.261 423.935 157.395 421.522 157.049 418.581C156.895 417.284 156.241 416.225 156.094 414.928C155.968 413.822 155.906 412.436 156.388 411.327C158.915 405.543 162.515 400.618 167.427 396.853C168.986 395.658 170.485 394.309 171.973 392.967C174.122 391.031 176.007 390.638 177.744 391.903C178.461 392.428 179.313 392.757 180.103 393.175C180.893 392.52 180.187 391.2 180.004 390.459C179.834 389.781 179.515 389.182 179.432 388.469C179.214 386.602 179.882 385.528 181.658 384.904C183.987 384.086 186.29 383.317 188.475 381.377C188.947 380.957 190.262 380.889 190.401 381.245C191.385 383.808 193.895 384.136 195.779 385.36C197.708 386.616 203.942 392.931 206.588 391.488C206.104 390.536 205.84 389.286 205.098 388.684C202.844 386.851 200.424 385.238 198.03 383.597C195.988 382.197 194.821 379.976 194.183 377.299C194.069 376.816 194.523 375.572 194.946 375.251C196.961 373.722 199.056 372.379 201.125 370.992C201.377 370.822 201.701 370.641 201.926 370.664C204.472 370.891 207.049 368.559 209.599 368.165C209.965 368.108 210.356 367.913 210.735 367.764C213.586 366.621 213.661 366.569 214.448 369.411C215.761 374.148 218.819 379.498 223.376 380.609C223.402 380.616 223.462 380.541 223.774 380.275C223.249 379.406 222.747 378.529 222.202 377.69C220.852 375.607 219.459 373.568 218.138 371.461C217.771 370.879 217.499 370.172 217.333 369.434C216.373 365.105 217.326 364.915 220.356 363.582C222.792 362.512 225.168 360.664 227.56 359.128C229.069 358.16 230.559 357.108 232.071 356.141C233.225 355.401 233.806 355.601 234.082 356.916C234.887 360.788 236.795 363.717 239.478 365.975C238.882 363.662 238.256 361.368 237.694 359.034C237.09 356.534 237.813 354.271 240.306 353.042C246.715 349.881 253.2 346.708 259.516 347.223C261.794 347.409 263.376 348.572 263.899 350.986C264.546 353.962 265.02 357.035 265.535 360.087C265.719 361.178 265.885 362.291 265.915 363.449C265.969 365.405 267.045 365.267 268.447 364.416C272.338 362.06 276.258 359.789 280.095 357.244C285.494 353.665 290.859 349.947 296.184 346.136C299.249 343.943 302.196 341.413 305.226 339.12C305.786 338.695 306.51 338.672 307.158 338.463C307.039 339.274 307.169 340.291 306.752 340.858C305.466 342.601 304.094 344.408 302.537 345.777C294.242 353.058 285.611 359.428 276.443 364.214C274.149 365.411 271.869 366.713 269.596 368.015C268.213 368.806 267.12 371.929 267.622 373.729C267.924 374.812 268.323 375.842 268.788 376.806C270.812 381.012 269.077 384.512 266.219 388.325C265.584 389.171 264.852 389.963 264.1 390.674C262.502 392.184 261.8 392.116 261.545 390.206C261.135 387.103 259.967 384.644 258.176 382.689C256.675 381.05 254.919 379.776 252.714 379.249C251.964 380.136 253.362 381.091 253.791 381.686Z" fill="#C00BA8"/>
<path d="M338.974 2.20879e-05C280.793 8.15473 285.474 84.576 274.974 167.642C264.474 250.707 337.974 291.988 293.974 414.322C249.974 536.655 274.974 565.35 274.974 722.42C274.974 879.489 209.05 919.838 143.974 893.585" stroke="#FF62EA" stroke-width="5"/>
<path d="M338.974 2.20879e-05C280.793 8.15473 285.474 84.576 274.974 167.642C264.474 250.707 337.974 291.988 293.974 414.322C249.974 536.655 274.974 565.35 274.974 722.42C274.974 879.489 209.05 919.838 143.974 893.585" stroke="#DA2EC3" stroke-width="2"/>
</svg>
